<svg width="29" height="30" viewBox="0 0 29 30" fill="none" xmlns="http://www.w3.org/2000/svg">
  <path d="M22.2961 0.987691L22.1075 1.44604L20.63 4.95589C20.7746 4.55405 20.4729 4.12081 20.0391 4.12081H7.96144C7.50877 4.12081 7.20699 4.57916 7.38303 4.99356L10.2814 11.9002C10.382 12.1326 10.6083 12.2832 10.8598 12.2832H16.6063C17.0527 12.2832 17.3544 12.7353 17.191 13.1434L17.0086 13.583L15.5312 17.0991C15.6758 16.691 15.374 16.2577 14.9402 16.2577H13.054C12.6076 16.2577 12.2996 16.7161 12.4756 17.1305L17.367 28.8028C17.5745 29.2988 17.2098 29.845 16.6691 29.845H13.6576C13.3558 29.845 13.0792 29.663 12.9597 29.3804L1.44796 1.88556C1.10217 1.05676 1.70573 0.146332 2.6048 0.146332H21.7051C22.1452 0.146332 22.447 0.579569 22.2961 0.987691Z" fill="#066FEF"/>
  <path d="M28.0804 4.05803L22.5226 17.2749C22.2271 17.9718 21.5418 18.4302 20.7811 18.4302H15.9085C15.4621 18.4302 15.1541 17.9718 15.3301 17.5574L15.5124 17.1305C15.5187 17.1179 15.5187 17.1116 15.525 17.0991L17.0025 13.583C16.8264 13.9974 17.1345 14.4557 17.5809 14.4557H18.8949C19.1464 14.4557 19.379 14.305 19.4733 14.0727L22.378 7.16603C22.554 6.75163 22.246 6.29328 21.7996 6.29328H21.0137C20.5673 6.29328 20.2592 5.83492 20.4353 5.42052L20.6176 4.99357C20.6239 4.98101 20.6302 4.96845 20.6302 4.95589L22.1077 1.44604C21.9316 1.86045 22.2397 2.3188 22.6861 2.3188H26.9236C27.8227 2.31252 28.4325 3.22922 28.0804 4.05803Z" fill="#A1CBFD"/>
</svg>
