<svg width="614" height="630" viewBox="0 0 614 630" fill="none" xmlns="http://www.w3.org/2000/svg">
  <g filter="url(#filter0_f_2959_29277)">
    <circle cx="308.887" cy="321.887" r="225.887" fill="url(#paint0_linear_2959_29277)"/>
  </g>
  <path d="M136.521 502.61C136.52 502.61 136.521 502.608 136.524 502.604C136.522 502.608 136.521 502.61 136.521 502.61ZM136.674 502.851C136.595 502.712 136.562 502.623 136.548 502.574C136.581 502.538 136.647 502.479 136.774 502.403C137.075 502.223 137.584 502.036 138.362 501.889C139.913 501.596 142.211 501.517 145.238 501.677C151.269 501.995 159.881 503.24 170.475 505.308C191.647 509.441 220.557 516.825 252.179 526.484C283.801 536.144 312.108 546.237 332.306 554.741C342.414 558.996 350.448 562.836 355.842 566.008C358.55 567.6 360.523 568.984 361.754 570.126C362.372 570.7 362.737 571.154 362.925 571.483C363.004 571.622 363.038 571.712 363.051 571.761C363.019 571.796 362.953 571.856 362.825 571.932C362.524 572.111 362.016 572.298 361.237 572.445C359.687 572.739 357.388 572.818 354.361 572.658C348.331 572.34 339.719 571.095 329.124 569.027C307.952 564.894 279.042 557.509 247.42 547.85C215.798 538.191 187.491 528.098 167.293 519.594C157.186 515.338 149.152 511.499 143.757 508.327C141.049 506.735 139.076 505.351 137.846 504.208C137.228 503.634 136.862 503.18 136.674 502.851ZM363.06 571.809C363.06 571.809 363.059 571.806 363.059 571.801C363.06 571.807 363.06 571.809 363.06 571.809ZM363.079 571.724C363.079 571.724 363.078 571.727 363.075 571.731C363.077 571.726 363.078 571.724 363.079 571.724ZM136.54 502.534C136.539 502.528 136.539 502.525 136.54 502.526C136.54 502.526 136.54 502.528 136.54 502.534Z" stroke="#6AAEFB" stroke-width="3"/>
  <path d="M103.596 459.989C103.733 459.36 104.463 458.491 106.752 457.808C108.942 457.155 112.132 456.806 116.282 456.792C124.56 456.765 136.319 458.066 150.739 460.572C179.559 465.581 218.793 475.367 261.598 488.749C304.403 502.13 342.625 516.558 369.813 529.057C383.416 535.311 394.206 541.059 401.416 545.929C405.031 548.37 407.672 550.541 409.315 552.393C411.034 554.329 411.316 555.514 411.179 556.143C411.041 556.773 410.312 557.641 408.023 558.324C405.833 558.978 402.643 559.326 398.493 559.34C390.215 559.368 378.456 558.067 364.036 555.56C335.215 550.551 295.982 540.765 253.176 527.384C210.371 514.002 172.15 499.575 144.962 487.075C131.358 480.821 120.569 475.073 113.358 470.204C109.744 467.762 107.103 465.591 105.459 463.739C103.741 461.804 103.459 460.619 103.596 459.989Z" stroke="#6AAEFB" stroke-width="3"/>
  <path d="M81.853 416.086C82.041 415.226 83.0233 414.175 85.8043 413.383C88.4747 412.623 92.346 412.24 97.3553 412.259C107.352 412.298 121.544 413.931 138.934 417.002C173.695 423.141 221.025 434.986 272.672 451.088C324.32 467.19 370.458 484.485 403.297 499.421C419.726 506.893 432.775 513.753 441.512 519.555C445.89 522.462 449.111 525.056 451.13 527.278C453.232 529.592 453.659 531.083 453.471 531.943C453.283 532.803 452.301 533.855 449.52 534.647C446.849 535.407 442.978 535.789 437.969 535.77C427.972 535.732 413.78 534.099 396.39 531.027C361.628 524.888 314.299 513.043 262.652 496.941C211.004 480.84 164.866 463.545 132.027 448.609C115.598 441.137 102.549 434.277 93.8116 428.475C89.4335 425.567 86.2127 422.974 84.194 420.752C82.0916 418.438 81.665 416.947 81.853 416.086Z" stroke="#6AAEFB" stroke-width="3"/>
  <path d="M68.2523 377.679C68.5335 376.381 69.8214 375.043 72.9031 374.01C75.9117 373.002 80.2466 372.422 85.8334 372.296C96.9865 372.045 112.784 373.608 132.118 376.822C170.765 383.248 223.311 396.234 280.585 414.264C337.858 432.294 388.963 451.937 425.282 469.111C443.451 477.703 457.866 485.651 467.493 492.444C472.316 495.847 475.862 498.908 478.078 501.561C480.348 504.278 480.929 506.204 480.647 507.502C480.366 508.8 479.078 510.138 475.997 511.171C472.988 512.179 468.653 512.759 463.066 512.885C451.913 513.136 436.116 511.573 416.782 508.359C378.135 501.933 325.589 488.947 268.315 470.917C211.041 452.887 159.937 433.244 123.618 416.07C105.449 407.478 91.0342 399.53 81.4066 392.737C76.5841 389.334 73.0377 386.273 70.8219 383.62C68.5522 380.903 67.9712 378.977 68.2523 377.679Z" stroke="#6AAEFB" stroke-width="3"/>
  <path d="M64.063 340.272C64.4581 338.423 66.0416 336.702 69.3413 335.332C72.6078 333.975 77.2789 333.086 83.2732 332.695C95.245 331.914 112.148 333.137 132.801 336.216C174.084 342.371 230.093 355.901 291.031 375.358C351.968 394.815 406.236 416.496 444.707 435.806C463.953 445.466 479.186 454.504 489.315 462.342C494.387 466.267 498.106 469.835 500.412 472.97C502.742 476.138 503.434 478.586 503.039 480.434C502.644 482.283 501.061 484.004 497.761 485.374C494.495 486.731 489.824 487.62 483.829 488.011C471.857 488.792 454.954 487.569 434.302 484.49C393.019 478.335 337.009 464.805 276.072 445.348C215.134 425.891 160.867 404.211 122.396 384.9C103.15 375.24 87.9166 366.202 77.787 358.364C72.7151 354.439 68.9966 350.872 66.6902 347.736C64.3604 344.568 63.6679 342.12 64.063 340.272Z" stroke="#6AAEFB" stroke-width="3"/>
  <path d="M58.0044 305.516C58.4913 303.218 60.2993 301.158 63.8109 299.495C67.3073 297.839 72.278 296.687 78.6338 296.072C91.3317 294.841 109.217 295.78 131.041 298.75C174.665 304.687 233.758 318.7 297.963 339.394C362.168 360.089 419.264 383.525 459.666 404.672C479.878 415.251 495.849 425.224 506.436 433.959C511.735 438.332 515.613 442.336 518.006 445.889C520.409 449.459 521.168 452.347 520.682 454.645C520.195 456.943 518.387 459.004 514.875 460.667C511.379 462.322 506.408 463.474 500.052 464.09C487.354 465.32 469.469 464.381 447.645 461.411C404.021 455.475 344.928 441.462 280.723 420.767C216.518 400.073 159.422 376.637 119.02 355.49C98.808 344.911 82.8369 334.937 72.2502 326.202C66.9512 321.83 63.0729 317.826 60.6801 314.272C58.2771 310.703 57.5176 307.814 58.0044 305.516Z" stroke="#6AAEFB" stroke-width="3"/>
  <path d="M66.3681 271.92C66.8888 269.454 68.7686 267.262 72.3399 265.484C75.9016 263.711 80.9534 262.453 87.4043 261.742C100.294 260.322 118.431 261.121 140.551 264.009C184.768 269.781 244.623 283.858 309.621 304.886C374.618 325.914 432.384 349.889 473.228 371.637C493.66 382.516 509.794 392.804 520.474 401.849C525.819 406.376 529.728 410.533 532.133 414.237C534.545 417.95 535.318 421 534.798 423.466C534.277 425.932 532.397 428.124 528.826 429.901C525.264 431.674 520.212 432.933 513.761 433.644C500.872 435.064 482.735 434.265 460.615 431.377C416.398 425.605 356.543 411.527 291.545 390.499C226.548 369.471 168.782 345.496 127.938 323.749C107.505 312.87 91.3714 302.582 80.6915 293.537C75.3464 289.01 71.438 284.852 69.0326 281.149C66.6207 277.435 65.8475 274.386 66.3681 271.92Z" stroke="#6AAEFB" stroke-width="3"/>
  <path d="M73.7992 240.619C74.39 237.796 76.3851 235.318 80.0084 233.281C83.6325 231.243 88.7444 229.732 95.2517 228.783C108.258 226.885 126.514 227.273 148.75 229.841C193.201 234.973 253.266 248.774 318.396 270.043C383.526 291.313 441.313 316 482.086 338.699C502.484 350.055 518.556 360.877 529.154 370.483C534.457 375.29 538.323 379.733 540.684 383.725C543.046 387.717 543.815 391.097 543.224 393.92C542.633 396.743 540.638 399.221 537.015 401.258C533.391 403.296 528.279 404.807 521.771 405.757C508.765 407.654 490.51 407.266 468.273 404.698C423.823 399.566 363.757 385.765 298.627 364.496C233.498 343.226 175.71 318.54 134.937 295.84C114.539 284.484 98.4673 273.662 87.8691 264.056C82.5664 259.249 78.7007 254.806 76.3387 250.814C73.9773 246.822 73.2084 243.442 73.7992 240.619Z" stroke="#6AAEFB" stroke-width="3"/>
  <path d="M80.9984 209.934C81.6665 206.714 83.7791 203.904 87.4689 201.566C91.1656 199.224 96.3473 197.424 102.919 196.201C116.058 193.755 134.448 193.671 156.816 195.867C201.53 200.256 261.833 213.722 327.11 235.246C392.387 256.769 450.199 282.248 490.891 306.019C511.248 317.911 527.251 329.336 537.758 339.577C543.013 344.7 546.832 349.468 549.146 353.792C551.455 358.108 552.206 361.862 551.538 365.083C550.87 368.303 548.758 371.113 545.068 373.451C541.371 375.793 536.189 377.594 529.618 378.817C516.479 381.262 498.088 381.346 475.72 379.151C431.007 374.762 370.704 361.295 305.427 339.771C240.149 318.248 182.338 292.769 141.646 268.998C121.289 257.106 105.286 245.682 94.7791 235.44C89.5238 230.317 85.7047 225.549 83.3908 221.225C81.0813 216.909 80.3304 213.155 80.9984 209.934Z" stroke="#6AAEFB" stroke-width="3"/>
  <path d="M98.4678 180.885C99.1422 177.62 101.213 174.769 104.782 172.381C108.359 169.988 113.362 168.119 119.699 166.811C132.37 164.196 150.085 163.882 171.62 165.805C214.667 169.65 272.669 182.407 335.403 203.185C398.138 223.964 453.644 248.802 492.664 272.138C512.185 283.813 527.509 295.07 537.546 305.206C542.566 310.276 546.205 315.007 548.399 319.312C550.587 323.607 551.29 327.376 550.616 330.641C549.941 333.905 547.871 336.756 544.302 339.144C540.724 341.538 535.722 343.406 529.385 344.714C516.713 347.329 498.999 347.644 477.464 345.72C434.417 341.875 376.415 329.118 313.68 308.34C250.945 287.561 195.439 262.724 156.419 239.387C136.898 227.712 121.574 216.455 111.537 206.319C106.518 201.25 102.879 196.519 100.685 192.213C98.4963 187.919 97.7935 184.149 98.4678 180.885Z" stroke="#6AAEFB" stroke-width="3"/>
  <path d="M117.306 158.053C117.971 154.826 119.969 152.001 123.385 149.624C126.81 147.239 131.592 145.357 137.647 144.013C149.754 141.326 166.666 140.854 187.22 142.55C228.304 145.939 283.622 157.959 343.418 177.829C403.214 197.7 456.08 221.63 493.207 244.232C511.781 255.538 526.344 266.47 535.865 276.344C540.625 281.282 544.069 285.897 546.136 290.107C548.198 294.305 548.851 298.01 548.187 301.238C547.522 304.466 545.524 307.29 542.108 309.668C538.682 312.052 533.901 313.935 527.846 315.278C515.739 317.965 498.827 318.437 478.273 316.742C437.189 313.353 381.871 301.332 322.075 281.462C262.279 261.591 209.413 237.661 172.286 215.06C153.712 203.753 139.148 192.821 129.628 182.947C124.867 178.01 121.424 173.394 119.356 169.184C117.295 164.986 116.641 161.281 117.306 158.053Z" stroke="#6AAEFB" stroke-width="3"/>
  <path d="M136.15 135.335C137.467 128.913 143.883 124.059 155.407 121.221C166.816 118.412 182.733 117.714 202.066 119.1C240.711 121.871 292.688 132.945 348.818 151.69C404.947 170.434 454.513 193.271 489.268 215.012C506.656 225.889 520.265 236.447 529.134 246.029C538.092 255.706 541.823 263.949 540.507 270.371C539.19 276.793 532.774 281.647 521.25 284.484C509.841 287.294 493.924 287.992 474.591 286.606C435.946 283.835 383.969 272.761 327.839 254.016C271.71 235.271 222.144 212.435 187.389 190.694C170.001 179.817 156.392 169.259 147.523 159.677C138.565 149.999 134.834 141.756 136.15 135.335Z" stroke="#6AAEFB" stroke-width="3"/>
  <path d="M169.645 112.204C170.875 106.177 176.616 101.554 186.875 98.7345C197.045 95.9397 211.214 95.0501 228.421 96.0636C262.812 98.0892 309.013 107.696 358.851 124.431C408.689 141.166 452.634 161.829 483.39 181.678C498.777 191.609 510.79 201.291 518.589 210.119C526.457 219.025 529.697 226.664 528.467 232.691C527.238 238.718 521.497 243.341 511.237 246.161C501.067 248.956 486.898 249.845 469.692 248.832C435.301 246.806 389.1 237.2 339.262 220.465C289.424 203.73 245.478 183.066 214.723 163.217C199.335 153.286 187.323 143.605 179.524 134.776C171.656 125.87 168.416 118.231 169.645 112.204Z" stroke="#6AAEFB" stroke-width="3"/>
  <path d="M207.043 97.7882C208.094 92.6198 212.896 88.5842 221.546 86.0596C230.118 83.5575 242.062 82.6703 256.577 83.4131C285.586 84.8978 324.536 92.8739 366.531 107.019C408.527 121.164 445.519 138.768 471.373 155.763C484.31 164.267 494.384 172.571 500.905 180.156C507.484 187.81 510.133 194.356 509.082 199.524C508.031 204.692 503.229 208.728 494.58 211.253C486.008 213.755 474.063 214.642 459.548 213.899C430.54 212.415 391.589 204.438 349.594 190.293C307.599 176.148 270.606 158.544 244.752 141.549C231.816 133.046 221.741 124.742 215.221 117.156C208.642 109.502 205.992 102.957 207.043 97.7882Z" stroke="#6AAEFB" stroke-width="3"/>
  <path d="M254.819 84.2762C255.577 80.5384 258.983 77.5146 265.302 75.5652C271.554 73.6365 280.282 72.8875 290.916 73.3513C312.164 74.2779 340.692 80.0296 371.444 90.4178C402.195 100.806 429.248 113.831 448.122 126.458C457.568 132.777 464.893 138.949 469.611 144.584C474.379 150.278 476.2 155.068 475.442 158.806C474.683 162.544 471.277 165.567 464.959 167.517C458.707 169.445 449.978 170.194 439.344 169.731C418.097 168.804 389.568 163.052 358.817 152.664C328.066 142.276 301.012 129.251 282.138 116.624C272.692 110.305 265.367 104.133 260.65 98.4983C255.882 92.8038 254.061 88.0141 254.819 84.2762Z" stroke="#6AAEFB" stroke-width="3"/>
  <mask id="mask0_2959_29277" style="mask-type:alpha" maskUnits="userSpaceOnUse" x="54" y="75" width="503" height="503">
    <circle cx="305.223" cy="326.33" r="251.132" transform="rotate(13.6246 305.223 326.33)" fill="#D9D9D9"/>
  </mask>
  <g mask="url(#mask0_2959_29277)">
    <line x1="313.737" y1="207.623" x2="713.193" y2="304.443" stroke="#47B52B" stroke-width="5" stroke-linecap="round"/>
    <line x1="304.472" y1="213.277" x2="689.022" y2="306.484" stroke="#47B52B" stroke-width="5" stroke-linecap="round"/>
    <line x1="535.015" y1="466.636" x2="599.094" y2="482.168" stroke="#47B52B" stroke-width="5" stroke-linecap="round"/>
    <line x1="479.452" y1="500.563" x2="573.343" y2="523.32" stroke="#47B52B" stroke-width="5" stroke-linecap="round"/>
    <line x1="477.644" y1="508.024" x2="571.534" y2="530.781" stroke="#47B52B" stroke-width="5" stroke-linecap="round"/>
    <line x1="475.835" y1="515.484" x2="569.725" y2="538.242" stroke="#47B52B" stroke-width="5" stroke-linecap="round"/>
    <line x1="481.479" y1="524.752" x2="567.917" y2="545.703" stroke="#47B52B" stroke-width="5" stroke-linecap="round"/>
    <line x1="408.593" y1="206.918" x2="703.709" y2="278.448" stroke="#47B52B" stroke-width="5" stroke-linecap="round"/>
    <line x1="540.663" y1="475.903" x2="574.931" y2="484.209" stroke="#47B52B" stroke-width="5" stroke-linecap="round"/>
    <line x1="524.39" y1="543.052" x2="558.658" y2="551.358" stroke="#47B52B" stroke-width="5" stroke-linecap="round"/>
    <line x1="530.034" y1="552.318" x2="556.849" y2="558.817" stroke="#47B52B" stroke-width="5" stroke-linecap="round"/>
    <line x1="535.679" y1="561.586" x2="555.041" y2="566.279" stroke="#47B52B" stroke-width="5" stroke-linecap="round"/>
    <line x1="271.265" y1="252.623" x2="603.645" y2="333.185" stroke="#47B52B" stroke-width="5" stroke-linecap="round"/>
    <line x1="260.194" y1="265.738" x2="600.028" y2="348.107" stroke="#47B52B" stroke-width="5" stroke-linecap="round"/>
    <line x1="258.386" y1="273.2" x2="598.219" y2="355.569" stroke="#47B52B" stroke-width="5" stroke-linecap="round"/>
    <line x1="533.87" y1="569.047" x2="545.78" y2="571.934" stroke="#47B52B" stroke-width="5" stroke-linecap="round"/>
    <line x1="265.62" y1="243.356" x2="598.001" y2="323.918" stroke="#47B52B" stroke-width="5" stroke-linecap="round"/>
    <line x1="254.769" y1="288.121" x2="587.149" y2="368.683" stroke="#47B52B" stroke-width="5" stroke-linecap="round"/>
    <line x1="342.397" y1="317.258" x2="577.891" y2="374.337" stroke="#47B52B" stroke-width="5" stroke-linecap="round"/>
    <line x1="549.265" y1="375.299" x2="561.174" y2="378.186" stroke="#47B52B" stroke-width="5" stroke-linecap="round"/>
    <line x1="516.058" y1="414.646" x2="535.42" y2="419.339" stroke="#47B52B" stroke-width="5" stroke-linecap="round"/>
    <line x1="506.796" y1="420.299" x2="533.611" y2="426.799" stroke="#47B52B" stroke-width="5" stroke-linecap="round"/>
    <line x1="504.987" y1="427.76" x2="531.802" y2="434.26" stroke="#47B52B" stroke-width="5" stroke-linecap="round"/>
    <line x1="525.538" y1="440.64" x2="529.995" y2="441.72" stroke="#47B52B" stroke-width="5" stroke-linecap="round"/>
    <line x1="516.495" y1="477.944" x2="558.216" y2="488.056" stroke="#47B52B" stroke-width="5" stroke-linecap="round"/>
    <line x1="507.233" y1="483.599" x2="563.86" y2="497.324" stroke="#47B52B" stroke-width="5" stroke-linecap="round"/>
    <line x1="519.675" y1="399.723" x2="531.584" y2="402.61" stroke="#47B52B" stroke-width="5" stroke-linecap="round"/>
    <line x1="517.866" y1="407.184" x2="529.776" y2="410.071" stroke="#47B52B" stroke-width="5" stroke-linecap="round"/>
    <line x1="497.976" y1="489.254" x2="562.055" y2="504.785" stroke="#47B52B" stroke-width="5" stroke-linecap="round"/>
    <line x1="479.671" y1="532.213" x2="491.58" y2="535.1" stroke="#47B52B" stroke-width="5" stroke-linecap="round"/>
    <line x1="473.589" y1="459.646" x2="522.762" y2="471.564" stroke="#47B52B" stroke-width="5" stroke-linecap="round"/>
    <line x1="481.261" y1="493.102" x2="567.698" y2="514.052" stroke="#47B52B" stroke-width="5" stroke-linecap="round"/>
    <line x1="465.694" y1="394.539" x2="499.962" y2="402.845" stroke="#47B52B" stroke-width="5" stroke-linecap="round"/>
    <line x1="471.343" y1="403.807" x2="498.158" y2="410.306" stroke="#47B52B" stroke-width="5" stroke-linecap="round"/>
    <line x1="469.53" y1="411.268" x2="496.345" y2="417.767" stroke="#47B52B" stroke-width="5" stroke-linecap="round"/>
    <line x1="512.714" y1="200.557" x2="554.435" y2="210.669" stroke="#47B52B" stroke-width="5" stroke-linecap="round"/>
    <line x1="467.944" y1="450.378" x2="517.118" y2="462.297" stroke="#47B52B" stroke-width="5" stroke-linecap="round"/>
    <line x1="462.296" y1="441.11" x2="585.998" y2="471.093" stroke="#47B52B" stroke-width="5" stroke-linecap="round"/>
    <line x1="456.655" y1="431.843" x2="550.546" y2="454.6" stroke="#47B52B" stroke-width="5" stroke-linecap="round"/>
    <line x1="514.522" y1="193.096" x2="541.338" y2="199.595" stroke="#47B52B" stroke-width="5" stroke-linecap="round"/>
    <line x1="415.335" y1="374.434" x2="509.225" y2="397.191" stroke="#47B52B" stroke-width="5" stroke-linecap="round"/>
    <line x1="460.269" y1="416.921" x2="479.631" y2="421.615" stroke="#47B52B" stroke-width="5" stroke-linecap="round"/>
    <line x1="458.46" y1="424.382" x2="515.086" y2="438.107" stroke="#47B52B" stroke-width="5" stroke-linecap="round"/>
    <line x1="510.687" y1="176.368" x2="530.049" y2="181.061" stroke="#47B52B" stroke-width="5" stroke-linecap="round"/>
    <line x1="508.878" y1="183.829" x2="543.146" y2="192.135" stroke="#47B52B" stroke-width="5" stroke-linecap="round"/>
    <line x1="495.999" y1="204.405" x2="560.078" y2="219.936" stroke="#47B52B" stroke-width="5" stroke-linecap="round"/>
    <line x1="420.979" y1="383.701" x2="447.795" y2="390.201" stroke="#47B52B" stroke-width="5" stroke-linecap="round"/>
    <line x1="423.007" y1="407.89" x2="442.369" y2="412.583" stroke="#47B52B" stroke-width="5" stroke-linecap="round"/>
    <line x1="479.288" y1="208.253" x2="588.084" y2="234.623" stroke="#47B52B" stroke-width="5" stroke-linecap="round"/>
    <line x1="424.815" y1="400.429" x2="436.725" y2="403.316" stroke="#47B52B" stroke-width="5" stroke-linecap="round"/>
    <line x1="419.171" y1="391.162" x2="438.533" y2="395.855" stroke="#47B52B" stroke-width="5" stroke-linecap="round"/>
    <line x1="428.925" y1="188.147" x2="463.193" y2="196.453" stroke="#47B52B" stroke-width="5" stroke-linecap="round"/>
    <line x1="456.925" y1="202.834" x2="468.834" y2="205.72" stroke="#47B52B" stroke-width="5" stroke-linecap="round"/>
    <line x1="409.69" y1="365.166" x2="533.392" y2="395.148" stroke="#47B52B" stroke-width="5" stroke-linecap="round"/>
    <line x1="438.183" y1="182.493" x2="464.998" y2="188.992" stroke="#47B52B" stroke-width="5" stroke-linecap="round"/>
    <line x1="447.667" y1="208.489" x2="630.991" y2="252.923" stroke="#47B52B" stroke-width="5" stroke-linecap="round"/>
    <line x1="230.823" y1="321.813" x2="399.242" y2="362.634" stroke="#47B52B" stroke-width="5" stroke-linecap="round"/>
    <line x1="229.015" y1="329.274" x2="397.433" y2="370.095" stroke="#47B52B" stroke-width="5" stroke-linecap="round"/>
    <line x1="227.206" y1="336.734" x2="388.172" y2="375.749" stroke="#47B52B" stroke-width="5" stroke-linecap="round"/>
    <line x1="225.401" y1="344.195" x2="386.367" y2="383.21" stroke="#47B52B" stroke-width="5" stroke-linecap="round"/>
    <line x1="419.663" y1="193.802" x2="439.025" y2="198.495" stroke="#47B52B" stroke-width="5" stroke-linecap="round"/>
    <line x1="417.854" y1="201.262" x2="429.764" y2="204.149" stroke="#47B52B" stroke-width="5" stroke-linecap="round"/>
    <line x1="223.589" y1="351.656" x2="377.102" y2="388.864" stroke="#47B52B" stroke-width="5" stroke-linecap="round"/>
    <line x1="229.233" y1="360.924" x2="367.841" y2="394.52" stroke="#47B52B" stroke-width="5" stroke-linecap="round"/>
    <line x1="234.878" y1="370.19" x2="366.033" y2="401.98" stroke="#47B52B" stroke-width="5" stroke-linecap="round"/>
    <line x1="345.081" y1="436.398" x2="356.991" y2="439.284" stroke="#47B52B" stroke-width="5" stroke-linecap="round"/>
    <line x1="268.745" y1="425.794" x2="355.183" y2="446.745" stroke="#47B52B" stroke-width="5" stroke-linecap="round"/>
    <line x1="266.937" y1="433.255" x2="353.374" y2="454.206" stroke="#47B52B" stroke-width="5" stroke-linecap="round"/>
    <line x1="332.202" y1="456.973" x2="351.564" y2="461.666" stroke="#47B52B" stroke-width="5" stroke-linecap="round"/>
    <line x1="330.394" y1="464.434" x2="349.756" y2="469.127" stroke="#47B52B" stroke-width="5" stroke-linecap="round"/>
    <line x1="413.8" y1="152.885" x2="462.973" y2="164.804" stroke="#47B52B" stroke-width="5" stroke-linecap="round"/>
    <line x1="411.991" y1="160.345" x2="453.712" y2="170.458" stroke="#47B52B" stroke-width="5" stroke-linecap="round"/>
    <line x1="274.171" y1="403.412" x2="338.25" y2="418.944" stroke="#47B52B" stroke-width="5" stroke-linecap="round"/>
    <line x1="272.358" y1="410.873" x2="336.438" y2="426.404" stroke="#47B52B" stroke-width="5" stroke-linecap="round"/>
    <line x1="270.554" y1="418.333" x2="334.633" y2="433.865" stroke="#47B52B" stroke-width="5" stroke-linecap="round"/>
    <line x1="265.128" y1="440.716" x2="321.754" y2="454.441" stroke="#47B52B" stroke-width="5" stroke-linecap="round"/>
    <line x1="270.772" y1="449.984" x2="319.946" y2="461.903" stroke="#47B52B" stroke-width="5" stroke-linecap="round"/>
    <line x1="268.964" y1="457.444" x2="310.685" y2="467.557" stroke="#47B52B" stroke-width="5" stroke-linecap="round"/>
    <line x1="267.159" y1="464.905" x2="308.88" y2="475.018" stroke="#47B52B" stroke-width="5" stroke-linecap="round"/>
    <line x1="341.519" y1="190.66" x2="383.239" y2="200.772" stroke="#47B52B" stroke-width="5" stroke-linecap="round"/>
    <line x1="272.8" y1="474.172" x2="299.615" y2="480.672" stroke="#47B52B" stroke-width="5" stroke-linecap="round"/>
    <line x1="341.3" y1="159.01" x2="368.115" y2="165.509" stroke="#47B52B" stroke-width="5" stroke-linecap="round"/>
    <line x1="358.233" y1="186.812" x2="370.143" y2="189.698" stroke="#47B52B" stroke-width="5" stroke-linecap="round"/>
    <line x1="270.991" y1="481.633" x2="282.901" y2="484.52" stroke="#47B52B" stroke-width="5" stroke-linecap="round"/>
    <line x1="354.175" y1="138.434" x2="373.537" y2="143.127" stroke="#47B52B" stroke-width="5" stroke-linecap="round"/>
    <line x1="337.464" y1="142.281" x2="379.185" y2="152.394" stroke="#47B52B" stroke-width="5" stroke-linecap="round"/>
    <line x1="335.655" y1="149.742" x2="369.923" y2="158.048" stroke="#47B52B" stroke-width="5" stroke-linecap="round"/>
    <line x1="324.804" y1="194.507" x2="701.901" y2="285.908" stroke="#47B52B" stroke-width="5" stroke-linecap="round"/>
    <line x1="322.995" y1="201.968" x2="714.998" y2="296.982" stroke="#47B52B" stroke-width="5" stroke-linecap="round"/>
    <line x1="268.526" y1="394.145" x2="347.511" y2="413.289" stroke="#47B52B" stroke-width="5" stroke-linecap="round"/>
    <line x1="306.503" y1="237.467" x2="594.167" y2="307.191" stroke="#47B52B" stroke-width="5" stroke-linecap="round"/>
    <line x1="270.335" y1="386.684" x2="356.773" y2="407.635" stroke="#47B52B" stroke-width="5" stroke-linecap="round"/>
    <line x1="267.429" y1="235.895" x2="599.809" y2="316.457" stroke="#47B52B" stroke-width="5" stroke-linecap="round"/>
    <line x1="287.757" y1="217.125" x2="679.76" y2="312.139" stroke="#47B52B" stroke-width="5" stroke-linecap="round"/>
    <line x1="278.499" y1="222.78" x2="663.049" y2="315.988" stroke="#47B52B" stroke-width="5" stroke-linecap="round"/>
    <line x1="276.69" y1="230.241" x2="296.053" y2="234.934" stroke="#47B52B" stroke-width="5" stroke-linecap="round"/>
    <line x1="269.456" y1="260.084" x2="594.384" y2="338.84" stroke="#47B52B" stroke-width="5" stroke-linecap="round"/>
    <line x1="256.577" y1="280.66" x2="559.146" y2="353.997" stroke="#47B52B" stroke-width="5" stroke-linecap="round"/>
    <line x1="252.96" y1="295.581" x2="331.945" y2="314.725" stroke="#47B52B" stroke-width="5" stroke-linecap="round"/>
    <line x1="251.155" y1="303.042" x2="538.819" y2="372.766" stroke="#47B52B" stroke-width="5" stroke-linecap="round"/>
    <line x1="241.89" y1="308.697" x2="537.006" y2="380.227" stroke="#47B52B" stroke-width="5" stroke-linecap="round"/>
    <line x1="154.981" y1="113.85" x2="278.683" y2="143.832" stroke="#47B52B" stroke-width="5" stroke-linecap="round"/>
    <line x1="244.851" y1="198.826" x2="264.213" y2="203.519" stroke="#47B52B" stroke-width="5" stroke-linecap="round"/>
    <line x1="232.632" y1="314.352" x2="535.201" y2="387.688" stroke="#47B52B" stroke-width="5" stroke-linecap="round"/>
    <line x1="181.175" y1="135.997" x2="267.612" y2="156.947" stroke="#47B52B" stroke-width="5" stroke-linecap="round"/>
    <line x1="185.011" y1="152.725" x2="263.996" y2="171.869" stroke="#47B52B" stroke-width="5" stroke-linecap="round"/>
    <line x1="248.472" y1="183.905" x2="275.287" y2="190.404" stroke="#47B52B" stroke-width="5" stroke-linecap="round"/>
    <line x1="246.659" y1="191.365" x2="273.474" y2="197.865" stroke="#47B52B" stroke-width="5" stroke-linecap="round"/>
    <line x1="181.394" y1="167.647" x2="238.02" y2="181.372" stroke="#47B52B" stroke-width="5" stroke-linecap="round"/>
    <line x1="72.9463" y1="354.638" x2="181.742" y2="381.008" stroke="#47B52B" stroke-width="5" stroke-linecap="round"/>
    <line x1="71.1357" y1="362.099" x2="179.932" y2="388.469" stroke="#47B52B" stroke-width="5" stroke-linecap="round"/>
    <line x1="179.585" y1="175.107" x2="221.306" y2="185.22" stroke="#47B52B" stroke-width="5" stroke-linecap="round"/>
    <line x1="76.7842" y1="371.366" x2="170.675" y2="394.123" stroke="#47B52B" stroke-width="5" stroke-linecap="round"/>
    <line x1="74.9736" y1="378.828" x2="168.864" y2="401.585" stroke="#47B52B" stroke-width="5" stroke-linecap="round"/>
    <line x1="88.0693" y1="389.901" x2="167.054" y2="409.046" stroke="#47B52B" stroke-width="5" stroke-linecap="round"/>
    <line x1="86.2627" y1="397.362" x2="157.795" y2="414.7" stroke="#47B52B" stroke-width="5" stroke-linecap="round"/>
    <line x1="84.4541" y1="404.823" x2="155.986" y2="422.161" stroke="#47B52B" stroke-width="5" stroke-linecap="round"/>
    <line x1="196.519" y1="202.909" x2="200.975" y2="203.989" stroke="#47B52B" stroke-width="5" stroke-linecap="round"/>
    <line x1="216.19" y1="89.1895" x2="272.817" y2="102.915" stroke="#47B52B" stroke-width="5" stroke-linecap="round"/>
    <line x1="82.6475" y1="412.284" x2="139.274" y2="426.009" stroke="#47B52B" stroke-width="5" stroke-linecap="round"/>
    <line x1="80.8389" y1="419.745" x2="137.465" y2="433.47" stroke="#47B52B" stroke-width="5" stroke-linecap="round"/>
    <line x1="185.229" y1="184.375" x2="212.045" y2="190.874" stroke="#47B52B" stroke-width="5" stroke-linecap="round"/>
    <line x1="183.421" y1="191.836" x2="210.236" y2="198.335" stroke="#47B52B" stroke-width="5" stroke-linecap="round"/>
    <line x1="85.8252" y1="334.062" x2="149.904" y2="349.594" stroke="#47B52B" stroke-width="5" stroke-linecap="round"/>
    <line x1="79.0283" y1="427.206" x2="128.202" y2="439.124" stroke="#47B52B" stroke-width="5" stroke-linecap="round"/>
    <line x1="183.202" y1="160.186" x2="254.734" y2="177.524" stroke="#47B52B" stroke-width="5" stroke-linecap="round"/>
    <line x1="8.61034" y1="196.859" x2="177.029" y2="237.681" stroke="#47B52B" stroke-width="5" stroke-linecap="round"/>
    <line x1="69.7685" y1="432.859" x2="118.942" y2="444.778" stroke="#47B52B" stroke-width="5" stroke-linecap="round"/>
    <line x1="179.366" y1="143.458" x2="265.804" y2="164.408" stroke="#47B52B" stroke-width="5" stroke-linecap="round"/>
    <line x1="-0.870124" y1="170.864" x2="175.001" y2="213.492" stroke="#47B52B" stroke-width="5" stroke-linecap="round"/>
    <line x1="80.1807" y1="324.795" x2="151.713" y2="342.133" stroke="#47B52B" stroke-width="5" stroke-linecap="round"/>
    <line x1="67.958" y1="440.321" x2="109.679" y2="450.433" stroke="#47B52B" stroke-width="5" stroke-linecap="round"/>
    <line x1="88.7275" y1="484.85" x2="100.637" y2="487.737" stroke="#47B52B" stroke-width="5" stroke-linecap="round"/>
    <line x1="14.2549" y1="206.127" x2="152.862" y2="239.722" stroke="#47B52B" stroke-width="5" stroke-linecap="round"/>
    <line x1="94.8643" y1="296.758" x2="129.132" y2="305.064" stroke="#47B52B" stroke-width="5" stroke-linecap="round"/>
    <line x1="57.1103" y1="485.086" x2="83.9255" y2="491.585" stroke="#47B52B" stroke-width="5" stroke-linecap="round"/>
    <line x1="62.7529" y1="494.353" x2="82.1153" y2="499.046" stroke="#47B52B" stroke-width="5" stroke-linecap="round"/>
    <line x1="98.7021" y1="313.486" x2="118.064" y2="318.179" stroke="#47B52B" stroke-width="5" stroke-linecap="round"/>
    <line x1="153.173" y1="121.31" x2="269.422" y2="149.487" stroke="#47B52B" stroke-width="5" stroke-linecap="round"/>
    <line x1="66.1514" y1="447.782" x2="100.419" y2="456.088" stroke="#47B52B" stroke-width="5" stroke-linecap="round"/>
    <line x1="64.3428" y1="455.243" x2="91.1579" y2="461.742" stroke="#47B52B" stroke-width="5" stroke-linecap="round"/>
    <line x1="62.5342" y1="462.703" x2="89.3493" y2="469.203" stroke="#47B52B" stroke-width="5" stroke-linecap="round"/>
    <line x1="60.7236" y1="470.164" x2="87.5388" y2="476.664" stroke="#47B52B" stroke-width="5" stroke-linecap="round"/>
    <line x1="58.9189" y1="477.625" x2="78.2813" y2="482.318" stroke="#47B52B" stroke-width="5" stroke-linecap="round"/>
    <line x1="149.118" y1="72.9317" x2="175.933" y2="79.4312" stroke="#47B52B" stroke-width="5" stroke-linecap="round"/>
    <line x1="116.347" y1="175.578" x2="158.067" y2="185.69" stroke="#47B52B" stroke-width="5" stroke-linecap="round"/>
    <line x1="121.993" y1="184.845" x2="163.714" y2="194.958" stroke="#47B52B" stroke-width="5" stroke-linecap="round"/>
    <line x1="91.0303" y1="280.029" x2="102.94" y2="282.916" stroke="#47B52B" stroke-width="5" stroke-linecap="round"/>
    <line x1="20.1201" y1="247.045" x2="99.105" y2="266.189" stroke="#47B52B" stroke-width="5" stroke-linecap="round"/>
    <line x1="74.5361" y1="315.527" x2="138.615" y2="331.059" stroke="#47B52B" stroke-width="5" stroke-linecap="round"/>
    <line x1="76.5635" y1="339.716" x2="163.001" y2="360.667" stroke="#47B52B" stroke-width="5" stroke-linecap="round"/>
    <line x1="74.7549" y1="347.177" x2="176.098" y2="371.741" stroke="#47B52B" stroke-width="5" stroke-linecap="round"/>
    <line x1="61.4365" y1="304.454" x2="88.2517" y2="310.953" stroke="#47B52B" stroke-width="5" stroke-linecap="round"/>
    <line x1="117.495" y1="73.1671" x2="293.367" y2="115.795" stroke="#47B52B" stroke-width="5" stroke-linecap="round"/>
    <line x1="40.8896" y1="291.574" x2="90.0632" y2="303.492" stroke="#47B52B" stroke-width="5" stroke-linecap="round"/>
    <line x1="108.233" y1="78.8218" x2="291.558" y2="123.256" stroke="#47B52B" stroke-width="5" stroke-linecap="round"/>
    <line x1="23.9521" y1="263.772" x2="65.6729" y2="273.884" stroke="#47B52B" stroke-width="5" stroke-linecap="round"/>
    <line x1="35.2432" y1="282.306" x2="84.4168" y2="294.225" stroke="#47B52B" stroke-width="5" stroke-linecap="round"/>
    <line x1="84.0674" y1="80.8633" x2="282.297" y2="128.91" stroke="#47B52B" stroke-width="5" stroke-linecap="round"/>
    <line x1="22.1435" y1="271.233" x2="108.581" y2="292.184" stroke="#47B52B" stroke-width="5" stroke-linecap="round"/>
    <line x1="18.3115" y1="254.505" x2="104.749" y2="275.456" stroke="#47B52B" stroke-width="5" stroke-linecap="round"/>
    <line x1="59.9014" y1="82.9053" x2="273.037" y2="134.565" stroke="#47B52B" stroke-width="5" stroke-linecap="round"/>
    <line x1="7.01855" y1="235.97" x2="115.815" y2="262.34" stroke="#47B52B" stroke-width="5" stroke-linecap="round"/>
    <line x1="43.1885" y1="86.7525" x2="144.532" y2="111.316" stroke="#47B52B" stroke-width="5" stroke-linecap="round"/>
    <line x1="41.3818" y1="94.2134" x2="142.725" y2="118.777" stroke="#47B52B" stroke-width="5" stroke-linecap="round"/>
    <line x1="4.99316" y1="211.781" x2="128.695" y2="241.764" stroke="#47B52B" stroke-width="5" stroke-linecap="round"/>
    <line x1="10.6377" y1="221.048" x2="126.887" y2="249.224" stroke="#47B52B" stroke-width="5" stroke-linecap="round"/>
    <line x1="8.83105" y1="228.509" x2="117.627" y2="254.879" stroke="#47B52B" stroke-width="5" stroke-linecap="round"/>
    <line x1="32.1182" y1="99.8682" x2="148.367" y2="128.045" stroke="#47B52B" stroke-width="5" stroke-linecap="round"/>
    <line x1="30.3115" y1="107.33" x2="154.013" y2="137.312" stroke="#47B52B" stroke-width="5" stroke-linecap="round"/>
    <line x1="2.96581" y1="187.591" x2="171.384" y2="228.413" stroke="#47B52B" stroke-width="5" stroke-linecap="round"/>
    <line x1="-2.67872" y1="178.325" x2="173.193" y2="220.952" stroke="#47B52B" stroke-width="5" stroke-linecap="round"/>
    <line x1="-6.51661" y1="161.597" x2="161.902" y2="202.419" stroke="#47B52B" stroke-width="5" stroke-linecap="round"/>
    <line x1="-71.7822" y1="137.878" x2="96.6364" y2="178.7" stroke="#47B52B" stroke-width="5" stroke-linecap="round"/>
    <line x1="-53.4795" y1="94.92" x2="159.656" y2="146.58" stroke="#47B52B" stroke-width="5" stroke-linecap="round"/>
    <line x1="-62.7393" y1="100.574" x2="165.302" y2="155.846" stroke="#47B52B" stroke-width="5" stroke-linecap="round"/>
    <line x1="-64.5479" y1="108.035" x2="170.946" y2="165.114" stroke="#47B52B" stroke-width="5" stroke-linecap="round"/>
    <line x1="-66.3545" y1="115.496" x2="169.139" y2="172.575" stroke="#47B52B" stroke-width="5" stroke-linecap="round"/>
    <line x1="-68.167" y1="122.957" x2="159.874" y2="178.23" stroke="#47B52B" stroke-width="5" stroke-linecap="round"/>
    <line x1="-69.9736" y1="130.418" x2="98.445" y2="171.239" stroke="#47B52B" stroke-width="5" stroke-linecap="round"/>
  </g>
  <path d="M432.556 260.305C432.556 262.439 431.564 266.12 429.976 270.578C428.405 274.987 426.306 280.01 424.2 284.758C422.095 289.503 419.99 293.959 418.41 297.23C417.713 298.673 417.119 299.884 416.672 300.787C416.226 299.884 415.632 298.673 414.935 297.23C413.355 293.959 411.249 289.503 409.145 284.758C407.039 280.01 404.94 274.987 403.369 270.578C401.78 266.12 400.789 262.439 400.789 260.305C400.789 251.533 407.9 244.421 416.672 244.421C425.444 244.421 432.556 251.533 432.556 260.305Z" fill="#FFCE52" stroke="black" stroke-width="2"/>
  <circle cx="416.675" cy="261.404" r="4.62774" fill="black" stroke="black" stroke-width="2"/>
  <path d="M327.661 246.902C327.661 249.036 326.67 252.717 325.081 257.176C323.51 261.584 321.411 266.608 319.305 271.355C317.201 276.1 315.095 280.556 313.515 283.827C312.818 285.27 312.224 286.481 311.778 287.384C311.331 286.481 310.737 285.27 310.04 283.827C308.46 280.556 306.355 276.1 304.25 271.355C302.144 266.608 300.045 261.584 298.475 257.176C296.886 252.717 295.895 249.036 295.895 246.902C295.895 238.13 303.006 231.019 311.778 231.019C320.55 231.019 327.661 238.13 327.661 246.902Z" fill="#FFCE52" stroke="black" stroke-width="2"/>
  <circle cx="311.776" cy="248.001" r="4.62774" fill="black" stroke="black" stroke-width="2"/>
  <path d="M154.477 123.699C154.477 125.833 153.486 129.514 151.897 133.973C150.327 138.382 148.228 143.405 146.122 148.153C144.017 152.898 141.911 157.354 140.332 160.624C139.635 162.067 139.041 163.279 138.594 164.182C138.148 163.279 137.553 162.067 136.857 160.624C135.277 157.354 133.171 152.898 131.067 148.153C128.961 143.405 126.862 138.382 125.291 133.973C123.702 129.514 122.711 125.833 122.711 123.699C122.711 114.927 129.822 107.816 138.594 107.816C147.366 107.816 154.477 114.927 154.477 123.699Z" fill="#FFCE52" stroke="black" stroke-width="2"/>
  <circle cx="138.595" cy="124.798" r="4.62774" fill="black" stroke="black" stroke-width="2"/>
  <path d="M251.798 134.717C251.798 136.851 250.806 140.532 249.218 144.991C247.647 149.4 245.548 154.423 243.442 159.171C241.337 163.916 239.232 168.372 237.652 171.642C236.955 173.085 236.361 174.297 235.914 175.2C235.468 174.297 234.874 173.085 234.177 171.642C232.597 168.372 230.492 163.916 228.387 159.171C226.281 154.423 224.182 149.4 222.611 144.991C221.023 140.532 220.031 136.851 220.031 134.717C220.031 125.945 227.142 118.834 235.914 118.834C244.687 118.834 251.798 125.945 251.798 134.717Z" fill="#FFCE52" stroke="black" stroke-width="2"/>
  <circle cx="235.917" cy="135.816" r="4.62774" fill="black" stroke="black" stroke-width="2"/>
  <path d="M260.188 61.995C260.188 64.1293 259.197 67.8102 257.608 72.2689C256.038 76.6775 253.938 81.7009 251.833 86.4485C249.728 91.1934 247.622 95.6495 246.043 98.9202C245.346 100.363 244.752 101.574 244.305 102.478C243.859 101.574 243.264 100.363 242.568 98.9202C240.988 95.6495 238.882 91.1934 236.778 86.4485C234.672 81.7009 232.573 76.6775 231.002 72.2689C229.413 67.8102 228.422 64.1293 228.422 61.995C228.422 53.223 235.533 46.1118 244.305 46.1118C253.077 46.1118 260.188 53.223 260.188 61.995Z" fill="#FFCE52" stroke="black" stroke-width="2"/>
  <circle cx="244.307" cy="63.0941" r="4.62774" fill="black" stroke="black" stroke-width="2"/>
  <path d="M478.848 164.521C478.848 166.655 477.857 170.336 476.268 174.795C474.698 179.203 472.599 184.227 470.493 188.974C468.388 193.719 466.283 198.175 464.703 201.446C464.006 202.889 463.412 204.1 462.965 205.004C462.519 204.1 461.925 202.889 461.228 201.446C459.648 198.175 457.542 193.719 455.438 188.974C453.332 184.227 451.233 179.203 449.662 174.795C448.073 170.336 447.082 166.655 447.082 164.521C447.082 155.749 454.193 148.638 462.965 148.638C471.737 148.638 478.848 155.749 478.848 164.521Z" fill="#FFCE52" stroke="black" stroke-width="2"/>
  <circle cx="462.968" cy="165.62" r="4.62774" fill="black" stroke="black" stroke-width="2"/>
  <path d="M537.774 224.129C537.774 226.263 536.783 229.944 535.194 234.403C533.624 238.811 531.524 243.835 529.419 248.582C527.314 253.327 525.208 257.783 523.629 261.054C522.932 262.497 522.337 263.708 521.891 264.611C521.445 263.708 520.85 262.497 520.153 261.054C518.574 257.783 516.468 253.327 514.364 248.582C512.258 243.835 510.159 238.811 508.588 234.403C506.999 229.944 506.008 226.263 506.008 224.129C506.008 215.357 513.119 208.246 521.891 208.246C530.663 208.246 537.774 215.357 537.774 224.129Z" fill="#FFCE52" stroke="black" stroke-width="2"/>
  <circle cx="521.893" cy="225.228" r="4.62774" fill="black" stroke="black" stroke-width="2"/>
  <path d="M501.36 331.704C501.36 333.838 500.369 337.519 498.78 341.977C497.209 346.386 495.11 351.409 493.004 356.157C490.9 360.902 488.794 365.358 487.215 368.629C486.518 370.071 485.923 371.283 485.477 372.186C485.031 371.283 484.436 370.071 483.739 368.629C482.16 365.358 480.054 360.902 477.949 356.157C475.844 351.409 473.744 346.386 472.174 341.977C470.585 337.519 469.594 333.838 469.594 331.704C469.594 322.931 476.705 315.82 485.477 315.82C494.249 315.82 501.36 322.931 501.36 331.704Z" fill="#FFCE52" stroke="black" stroke-width="2"/>
  <circle cx="485.479" cy="332.803" r="4.62774" fill="black" stroke="black" stroke-width="2"/>
  <path d="M381.528 179.995C381.528 182.129 380.537 185.81 378.948 190.269C377.377 194.678 375.278 199.701 373.172 204.449C371.068 209.193 368.962 213.65 367.382 216.92C366.686 218.363 366.091 219.574 365.645 220.478C365.199 219.574 364.604 218.363 363.907 216.92C362.328 213.65 360.222 209.193 358.117 204.449C356.012 199.701 353.912 194.678 352.342 190.269C350.753 185.81 349.762 182.129 349.762 179.995C349.762 171.223 356.873 164.112 365.645 164.112C374.417 164.112 381.528 171.223 381.528 179.995Z" fill="#FFCE52" stroke="black" stroke-width="2"/>
  <circle cx="365.647" cy="181.094" r="4.62774" fill="black" stroke="black" stroke-width="2"/>
  <path d="M285.563 330.777C285.563 332.911 284.572 336.592 282.983 341.051C281.413 345.46 279.313 350.483 277.208 355.231C275.103 359.976 272.997 364.432 271.418 367.702C270.721 369.145 270.127 370.357 269.68 371.26C269.234 370.357 268.639 369.145 267.943 367.702C266.363 364.432 264.257 359.976 262.153 355.231C260.047 350.483 257.948 345.46 256.377 341.051C254.788 336.592 253.797 332.911 253.797 330.777C253.797 322.005 260.908 314.894 269.68 314.894C278.452 314.894 285.563 322.005 285.563 330.777Z" fill="#FFCE52" stroke="black" stroke-width="2"/>
  <circle cx="269.682" cy="331.876" r="4.62774" fill="black" stroke="black" stroke-width="2"/>
  <path d="M370.235 366.552C370.235 368.686 369.244 372.367 367.655 376.825C366.084 381.234 363.985 386.258 361.879 391.005C359.775 395.75 357.669 400.206 356.09 403.477C355.393 404.92 354.798 406.131 354.352 407.034C353.906 406.131 353.311 404.92 352.614 403.477C351.035 400.206 348.929 395.75 346.824 391.005C344.719 386.258 342.619 381.234 341.049 376.825C339.46 372.367 338.469 368.686 338.469 366.552C338.469 357.78 345.58 350.668 354.352 350.668C363.124 350.668 370.235 357.78 370.235 366.552Z" fill="#FFCE52" stroke="black" stroke-width="2"/>
  <circle cx="354.354" cy="367.651" r="4.62774" fill="black" stroke="black" stroke-width="2"/>
  <path d="M94.4188 203.605C94.4188 205.739 93.4274 209.42 91.8388 213.879C90.2681 218.287 88.169 223.311 86.0631 228.058C83.9584 232.803 81.8529 237.259 80.2731 240.53C79.5763 241.973 78.982 243.184 78.5356 244.087C78.0891 243.184 77.4949 241.973 76.798 240.53C75.2182 237.259 73.1127 232.803 71.0081 228.058C68.9022 223.311 66.8031 218.287 65.2323 213.879C63.6438 209.42 62.6523 205.739 62.6523 203.605C62.6523 194.833 69.7635 187.722 78.5356 187.722C87.3076 187.722 94.4188 194.833 94.4188 203.605Z" fill="#FFCE52" stroke="black" stroke-width="2"/>
  <circle cx="78.5359" cy="204.704" r="4.62774" fill="black" stroke="black" stroke-width="2"/>
  <path d="M174.761 367.153C174.761 369.287 173.769 372.968 172.181 377.427C170.61 381.835 168.511 386.859 166.405 391.606C164.3 396.351 162.195 400.807 160.615 404.078C159.918 405.521 159.324 406.732 158.877 407.635C158.431 406.732 157.837 405.521 157.14 404.078C155.56 400.807 153.455 396.351 151.35 391.606C149.244 386.859 147.145 381.835 145.574 377.427C143.986 372.968 142.994 369.287 142.994 367.153C142.994 358.381 150.105 351.27 158.877 351.27C167.649 351.27 174.761 358.381 174.761 367.153Z" fill="#FFCE52" stroke="black" stroke-width="2"/>
  <circle cx="158.88" cy="368.251" r="4.62774" fill="black" stroke="black" stroke-width="2"/>
  <path d="M119.872 294.78C119.872 296.914 118.88 300.595 117.292 305.054C115.721 309.462 113.622 314.486 111.516 319.233C109.412 323.978 107.306 328.434 105.726 331.705C105.029 333.148 104.435 334.359 103.989 335.262C103.542 334.359 102.948 333.148 102.251 331.705C100.671 328.434 98.5659 323.978 96.4612 319.233C94.3553 314.486 92.2562 309.462 90.6855 305.054C89.0969 300.595 88.1055 296.914 88.1055 294.78C88.1055 286.008 95.2166 278.896 103.989 278.896C112.761 278.896 119.872 286.008 119.872 294.78Z" fill="#FFCE52" stroke="black" stroke-width="2"/>
  <circle cx="103.989" cy="295.878" r="4.62774" fill="black" stroke="black" stroke-width="2"/>
  <defs>
    <filter id="filter0_f_2959_29277" x="73" y="86" width="471.773" height="471.773" filterUnits="userSpaceOnUse" color-interpolation-filters="sRGB">
      <feFlood flood-opacity="0" result="BackgroundImageFix"/>
      <feBlend mode="normal" in="SourceGraphic" in2="BackgroundImageFix" result="shape"/>
      <feGaussianBlur stdDeviation="5" result="effect1_foregroundBlur_2959_29277"/>
    </filter>
    <linearGradient id="paint0_linear_2959_29277" x1="376.801" y1="96" x2="228.911" y2="561.752" gradientUnits="userSpaceOnUse">
      <stop stop-color="#0558BD"/>
      <stop offset="0.755" stop-color="#022957"/>
    </linearGradient>
  </defs>
</svg>
