<svg width="614" height="630" viewBox="0 0 614 630" fill="none" xmlns="http://www.w3.org/2000/svg">
  <g filter="url(#filter0_f_2959_29277)">
    <circle cx="308.887" cy="321.887" r="225.887" fill="url(#paint0_linear_2959_29277)"/>
  </g>
  <path d="M136.521 502.61C136.52 502.61 136.521 502.608 136.524 502.604C136.522 502.608 136.521 502.61 136.521 502.61ZM136.674 502.851C136.595 502.712 136.562 502.623 136.548 502.574C136.581 502.538 136.647 502.479 136.774 502.403C137.075 502.223 137.584 502.036 138.362 501.889C139.913 501.596 142.211 501.517 145.238 501.677C151.269 501.995 159.881 503.24 170.475 505.308C191.647 509.441 220.557 516.825 252.179 526.484C283.801 536.144 312.108 546.237 332.306 554.741C342.414 558.996 350.448 562.836 355.842 566.008C358.55 567.6 360.523 568.984 361.754 570.126C362.372 570.7 362.737 571.154 362.925 571.483C363.004 571.622 363.038 571.712 363.051 571.761C363.019 571.796 362.953 571.856 362.825 571.932C362.524 572.111 362.016 572.298 361.237 572.445C359.687 572.739 357.388 572.818 354.361 572.658C348.331 572.34 339.719 571.095 329.124 569.027C307.952 564.894 279.042 557.509 247.42 547.85C215.798 538.191 187.491 528.098 167.293 519.594C157.186 515.338 149.152 511.499 143.757 508.327C141.049 506.735 139.076 505.351 137.846 504.208C137.228 503.634 136.862 503.18 136.674 502.851ZM363.06 571.809C363.06 571.809 363.059 571.806 363.059 571.801C363.06 571.807 363.06 571.809 363.06 571.809ZM363.079 571.724C363.079 571.724 363.078 571.727 363.075 571.731C363.077 571.726 363.078 571.724 363.079 571.724ZM136.54 502.534C136.539 502.528 136.539 502.525 136.54 502.526C136.54 502.526 136.54 502.528 136.54 502.534Z" stroke="#066FEF" stroke-width="3"/>
  <path d="M103.596 459.989C103.733 459.36 104.463 458.491 106.752 457.808C108.942 457.155 112.132 456.806 116.282 456.792C124.56 456.765 136.319 458.066 150.739 460.572C179.559 465.581 218.793 475.367 261.598 488.749C304.403 502.13 342.625 516.558 369.813 529.057C383.416 535.311 394.206 541.059 401.416 545.929C405.031 548.37 407.672 550.541 409.315 552.393C411.034 554.329 411.316 555.514 411.179 556.143C411.041 556.773 410.312 557.641 408.023 558.324C405.833 558.978 402.643 559.326 398.493 559.34C390.215 559.368 378.456 558.067 364.036 555.56C335.215 550.551 295.982 540.765 253.176 527.384C210.371 514.002 172.15 499.575 144.962 487.075C131.358 480.821 120.569 475.073 113.358 470.204C109.744 467.762 107.103 465.591 105.459 463.739C103.741 461.804 103.459 460.619 103.596 459.989Z" stroke="#066FEF" stroke-width="3"/>
  <path d="M81.855 416.086C82.0429 415.226 83.0252 414.175 85.8063 413.383C88.4766 412.623 92.348 412.24 97.3572 412.259C107.354 412.298 121.546 413.931 138.936 417.002C173.697 423.141 221.027 434.986 272.674 451.088C324.322 467.19 370.46 484.485 403.299 499.421C419.728 506.893 432.777 513.753 441.514 519.555C445.892 522.462 449.113 525.056 451.132 527.278C453.234 529.592 453.661 531.083 453.473 531.943C453.285 532.803 452.303 533.855 449.522 534.647C446.851 535.407 442.98 535.789 437.971 535.77C427.974 535.732 413.782 534.099 396.392 531.027C361.63 524.888 314.301 513.043 262.654 496.941C211.006 480.84 164.868 463.545 132.029 448.609C115.6 441.137 102.551 434.277 93.8136 428.475C89.4355 425.567 86.2146 422.974 84.1959 420.752C82.0936 418.438 81.667 416.947 81.855 416.086Z" stroke="#066FEF" stroke-width="3"/>
  <path d="M68.2523 377.679C68.5335 376.381 69.8214 375.043 72.9031 374.01C75.9117 373.002 80.2466 372.422 85.8334 372.296C96.9865 372.045 112.784 373.608 132.118 376.822C170.765 383.248 223.311 396.234 280.585 414.264C337.858 432.294 388.963 451.937 425.282 469.111C443.451 477.703 457.866 485.651 467.493 492.444C472.316 495.847 475.862 498.908 478.078 501.561C480.348 504.278 480.929 506.204 480.647 507.502C480.366 508.8 479.078 510.138 475.997 511.171C472.988 512.179 468.653 512.759 463.066 512.885C451.913 513.136 436.116 511.573 416.782 508.359C378.135 501.933 325.589 488.947 268.315 470.917C211.041 452.887 159.937 433.244 123.618 416.07C105.449 407.478 91.0342 399.53 81.4066 392.737C76.5841 389.334 73.0377 386.273 70.8219 383.62C68.5522 380.903 67.9712 378.977 68.2523 377.679Z" stroke="#066FEF" stroke-width="3"/>
  <path d="M64.063 340.272C64.4581 338.423 66.0416 336.702 69.3413 335.332C72.6078 333.975 77.2789 333.086 83.2732 332.695C95.245 331.914 112.148 333.137 132.801 336.216C174.084 342.371 230.093 355.901 291.031 375.358C351.968 394.815 406.236 416.496 444.707 435.806C463.953 445.466 479.186 454.504 489.315 462.342C494.387 466.267 498.106 469.835 500.412 472.97C502.742 476.138 503.434 478.586 503.039 480.434C502.644 482.283 501.061 484.004 497.761 485.374C494.495 486.731 489.824 487.62 483.829 488.011C471.857 488.792 454.954 487.569 434.302 484.49C393.019 478.335 337.009 464.805 276.072 445.348C215.134 425.891 160.867 404.211 122.396 384.9C103.15 375.24 87.9166 366.202 77.787 358.364C72.7151 354.439 68.9966 350.872 66.6902 347.736C64.3604 344.568 63.6679 342.12 64.063 340.272Z" stroke="#066FEF" stroke-width="3"/>
  <path d="M58.0025 305.516C58.4893 303.218 60.2973 301.158 63.8089 299.495C67.3054 297.839 72.276 296.687 78.6319 296.072C91.3298 294.841 109.215 295.78 131.039 298.75C174.663 304.687 233.756 318.7 297.961 339.394C362.166 360.089 419.262 383.525 459.664 404.672C479.876 415.251 495.847 425.224 506.434 433.959C511.733 438.332 515.611 442.336 518.004 445.889C520.407 449.459 521.166 452.347 520.68 454.645C520.193 456.943 518.385 459.004 514.873 460.667C511.377 462.322 506.406 463.474 500.05 464.09C487.352 465.32 469.467 464.381 447.643 461.411C404.019 455.475 344.926 441.462 280.721 420.767C216.516 400.073 159.42 376.637 119.018 355.49C98.806 344.911 82.835 334.937 72.2483 326.202C66.9492 321.83 63.0709 317.826 60.6782 314.272C58.2751 310.703 57.5156 307.814 58.0025 305.516Z" stroke="#066FEF" stroke-width="3"/>
  <path d="M66.3681 271.92C66.8888 269.454 68.7686 267.262 72.3399 265.484C75.9016 263.711 80.9534 262.453 87.4043 261.742C100.294 260.322 118.431 261.121 140.551 264.009C184.768 269.781 244.623 283.858 309.621 304.886C374.618 325.914 432.384 349.889 473.228 371.637C493.66 382.516 509.794 392.804 520.474 401.849C525.819 406.376 529.728 410.533 532.133 414.237C534.545 417.95 535.318 421 534.798 423.466C534.277 425.932 532.397 428.124 528.826 429.901C525.264 431.674 520.212 432.933 513.761 433.644C500.872 435.064 482.735 434.265 460.615 431.377C416.398 425.605 356.543 411.527 291.545 390.499C226.548 369.471 168.782 345.496 127.938 323.749C107.505 312.87 91.3714 302.582 80.6915 293.537C75.3464 289.01 71.438 284.852 69.0326 281.149C66.6207 277.435 65.8475 274.386 66.3681 271.92Z" stroke="#066FEF" stroke-width="3"/>
  <path d="M73.7992 240.619C74.39 237.796 76.3851 235.318 80.0084 233.281C83.6325 231.243 88.7444 229.732 95.2517 228.783C108.258 226.885 126.514 227.273 148.75 229.841C193.201 234.973 253.266 248.774 318.396 270.043C383.526 291.313 441.313 316 482.086 338.699C502.484 350.055 518.556 360.877 529.154 370.483C534.457 375.29 538.323 379.733 540.684 383.725C543.046 387.717 543.815 391.097 543.224 393.92C542.633 396.743 540.638 399.221 537.015 401.258C533.391 403.296 528.279 404.807 521.771 405.757C508.765 407.654 490.51 407.266 468.273 404.698C423.823 399.566 363.757 385.765 298.627 364.496C233.498 343.226 175.71 318.54 134.937 295.84C114.539 284.484 98.4673 273.662 87.8691 264.056C82.5664 259.249 78.7007 254.806 76.3387 250.814C73.9773 246.822 73.2084 243.442 73.7992 240.619Z" stroke="#066FEF" stroke-width="3"/>
  <path d="M80.9984 209.934C81.6665 206.714 83.7791 203.904 87.4689 201.566C91.1656 199.224 96.3473 197.424 102.919 196.201C116.058 193.755 134.448 193.671 156.816 195.867C201.53 200.256 261.833 213.722 327.11 235.246C392.387 256.769 450.199 282.248 490.891 306.019C511.248 317.911 527.251 329.336 537.758 339.577C543.013 344.7 546.832 349.468 549.146 353.792C551.455 358.108 552.206 361.862 551.538 365.083C550.87 368.303 548.758 371.113 545.068 373.451C541.371 375.793 536.189 377.594 529.618 378.817C516.479 381.262 498.088 381.346 475.72 379.151C431.007 374.762 370.704 361.295 305.427 339.771C240.149 318.248 182.338 292.769 141.646 268.998C121.289 257.106 105.286 245.682 94.7791 235.44C89.5238 230.317 85.7047 225.549 83.3908 221.225C81.0813 216.909 80.3304 213.155 80.9984 209.934Z" stroke="#066FEF" stroke-width="3"/>
  <path d="M98.4659 180.885C99.1402 177.62 101.211 174.769 104.78 172.381C108.357 169.988 113.36 168.119 119.697 166.811C132.368 164.196 150.083 163.882 171.618 165.805C214.665 169.65 272.667 182.407 335.401 203.185C398.136 223.964 453.642 248.802 492.662 272.138C512.183 283.813 527.507 295.07 537.544 305.206C542.564 310.276 546.203 315.007 548.397 319.312C550.585 323.607 551.288 327.376 550.614 330.641C549.939 333.905 547.869 336.756 544.3 339.144C540.722 341.538 535.72 343.406 529.383 344.714C516.711 347.329 498.997 347.644 477.462 345.72C434.415 341.875 376.413 329.118 313.678 308.34C250.944 287.561 195.438 262.724 156.417 239.387C136.896 227.712 121.572 216.455 111.535 206.319C106.516 201.25 102.877 196.519 100.683 192.213C98.4943 187.919 97.7915 184.149 98.4659 180.885Z" stroke="#066FEF" stroke-width="3"/>
  <path d="M117.306 158.053C117.971 154.826 119.969 152.001 123.385 149.624C126.81 147.239 131.592 145.357 137.647 144.013C149.754 141.326 166.666 140.854 187.22 142.55C228.304 145.939 283.622 157.959 343.418 177.829C403.214 197.7 456.08 221.63 493.207 244.232C511.781 255.538 526.344 266.47 535.865 276.344C540.625 281.282 544.069 285.897 546.136 290.107C548.198 294.305 548.851 298.01 548.187 301.238C547.522 304.466 545.524 307.29 542.108 309.668C538.682 312.052 533.901 313.935 527.846 315.278C515.739 317.965 498.827 318.437 478.273 316.742C437.189 313.353 381.871 301.332 322.075 281.462C262.279 261.591 209.413 237.661 172.286 215.06C153.712 203.753 139.148 192.821 129.628 182.947C124.867 178.01 121.424 173.394 119.356 169.184C117.295 164.986 116.641 161.281 117.306 158.053Z" stroke="#066FEF" stroke-width="3"/>
  <path d="M136.15 135.335C137.467 128.913 143.883 124.059 155.407 121.221C166.816 118.412 182.733 117.714 202.066 119.1C240.711 121.871 292.688 132.945 348.818 151.69C404.947 170.434 454.513 193.271 489.268 215.012C506.656 225.889 520.265 236.447 529.134 246.029C538.092 255.706 541.823 263.949 540.507 270.371C539.19 276.793 532.774 281.647 521.25 284.484C509.841 287.294 493.924 287.992 474.591 286.606C435.946 283.835 383.969 272.761 327.839 254.016C271.71 235.271 222.144 212.435 187.389 190.694C170.001 179.817 156.392 169.259 147.523 159.677C138.565 149.999 134.834 141.756 136.15 135.335Z" stroke="#066FEF" stroke-width="3"/>
  <path d="M169.645 112.204C170.875 106.177 176.616 101.554 186.875 98.7345C197.045 95.9397 211.214 95.0501 228.421 96.0636C262.812 98.0892 309.013 107.696 358.851 124.431C408.689 141.166 452.634 161.829 483.39 181.678C498.777 191.609 510.79 201.291 518.589 210.119C526.457 219.025 529.697 226.664 528.467 232.691C527.238 238.718 521.497 243.341 511.237 246.161C501.067 248.956 486.898 249.845 469.692 248.832C435.301 246.806 389.1 237.2 339.262 220.465C289.424 203.73 245.478 183.066 214.723 163.217C199.335 153.286 187.323 143.605 179.524 134.776C171.656 125.87 168.416 118.231 169.645 112.204Z" stroke="#066FEF" stroke-width="3"/>
  <path d="M207.043 97.7882C208.094 92.6198 212.896 88.5842 221.546 86.0596C230.118 83.5575 242.062 82.6703 256.577 83.4131C285.586 84.8978 324.536 92.8739 366.531 107.019C408.527 121.164 445.519 138.768 471.373 155.763C484.31 164.267 494.384 172.571 500.905 180.156C507.484 187.81 510.133 194.356 509.082 199.524C508.031 204.692 503.229 208.728 494.58 211.253C486.008 213.755 474.063 214.642 459.548 213.899C430.54 212.415 391.589 204.438 349.594 190.293C307.599 176.148 270.606 158.544 244.752 141.549C231.816 133.046 221.741 124.742 215.221 117.156C208.642 109.502 205.992 102.957 207.043 97.7882Z" stroke="#066FEF" stroke-width="3"/>
  <path d="M254.817 84.2762C255.575 80.5384 258.981 77.5146 265.3 75.5652C271.552 73.6365 280.28 72.8875 290.914 73.3513C312.162 74.2779 340.69 80.0296 371.442 90.4178C402.193 100.806 429.246 113.831 448.12 126.458C457.566 132.777 464.891 138.949 469.609 144.584C474.377 150.278 476.198 155.068 475.44 158.806C474.681 162.544 471.275 165.567 464.957 167.517C458.705 169.445 449.976 170.194 439.342 169.731C418.095 168.804 389.566 163.052 358.815 152.664C328.064 142.276 301.01 129.251 282.136 116.624C272.69 110.305 265.365 104.133 260.648 98.4983C255.88 92.8038 254.059 88.0141 254.817 84.2762Z" stroke="#066FEF" stroke-width="3"/>
  <mask id="mask0_2959_29277" style="mask-type:alpha" maskUnits="userSpaceOnUse" x="54" y="75" width="503" height="503">
    <circle cx="305.223" cy="326.33" r="251.132" transform="rotate(13.6246 305.223 326.33)" fill="#D9D9D9"/>
  </mask>
  <g mask="url(#mask0_2959_29277)">
    <line x1="313.739" y1="207.623" x2="713.195" y2="304.443" stroke="#47B52B" stroke-width="5" stroke-linecap="round"/>
    <line x1="304.474" y1="213.277" x2="689.024" y2="306.484" stroke="#47B52B" stroke-width="5" stroke-linecap="round"/>
    <line x1="535.019" y1="466.636" x2="599.098" y2="482.168" stroke="#47B52B" stroke-width="5" stroke-linecap="round"/>
    <line x1="479.452" y1="500.563" x2="573.343" y2="523.32" stroke="#47B52B" stroke-width="5" stroke-linecap="round"/>
    <line x1="477.644" y1="508.024" x2="571.534" y2="530.781" stroke="#47B52B" stroke-width="5" stroke-linecap="round"/>
    <line x1="475.837" y1="515.484" x2="569.727" y2="538.242" stroke="#47B52B" stroke-width="5" stroke-linecap="round"/>
    <line x1="481.481" y1="524.752" x2="567.919" y2="545.703" stroke="#47B52B" stroke-width="5" stroke-linecap="round"/>
    <line x1="408.595" y1="206.918" x2="703.711" y2="278.448" stroke="#47B52B" stroke-width="5" stroke-linecap="round"/>
    <line x1="540.663" y1="475.903" x2="574.931" y2="484.209" stroke="#47B52B" stroke-width="5" stroke-linecap="round"/>
    <line x1="524.39" y1="543.052" x2="558.658" y2="551.358" stroke="#47B52B" stroke-width="5" stroke-linecap="round"/>
    <line x1="530.034" y1="552.318" x2="556.849" y2="558.817" stroke="#47B52B" stroke-width="5" stroke-linecap="round"/>
    <line x1="535.681" y1="561.586" x2="555.043" y2="566.279" stroke="#47B52B" stroke-width="5" stroke-linecap="round"/>
    <line x1="271.267" y1="252.623" x2="603.647" y2="333.185" stroke="#47B52B" stroke-width="5" stroke-linecap="round"/>
    <line x1="260.194" y1="265.738" x2="600.028" y2="348.107" stroke="#47B52B" stroke-width="5" stroke-linecap="round"/>
    <line x1="258.39" y1="273.2" x2="598.223" y2="355.569" stroke="#47B52B" stroke-width="5" stroke-linecap="round"/>
    <line x1="533.872" y1="569.047" x2="545.782" y2="571.934" stroke="#47B52B" stroke-width="5" stroke-linecap="round"/>
    <line x1="265.62" y1="243.356" x2="598.001" y2="323.918" stroke="#47B52B" stroke-width="5" stroke-linecap="round"/>
    <line x1="254.772" y1="288.121" x2="587.153" y2="368.683" stroke="#47B52B" stroke-width="5" stroke-linecap="round"/>
    <line x1="342.397" y1="317.258" x2="577.891" y2="374.337" stroke="#47B52B" stroke-width="5" stroke-linecap="round"/>
    <line x1="549.267" y1="375.299" x2="561.176" y2="378.186" stroke="#47B52B" stroke-width="5" stroke-linecap="round"/>
    <line x1="516.06" y1="414.646" x2="535.422" y2="419.339" stroke="#47B52B" stroke-width="5" stroke-linecap="round"/>
    <line x1="506.796" y1="420.299" x2="533.611" y2="426.799" stroke="#47B52B" stroke-width="5" stroke-linecap="round"/>
    <line x1="504.989" y1="427.76" x2="531.804" y2="434.26" stroke="#47B52B" stroke-width="5" stroke-linecap="round"/>
    <line x1="525.54" y1="440.64" x2="529.997" y2="441.72" stroke="#47B52B" stroke-width="5" stroke-linecap="round"/>
    <line x1="516.497" y1="477.944" x2="558.218" y2="488.056" stroke="#47B52B" stroke-width="5" stroke-linecap="round"/>
    <line x1="507.235" y1="483.599" x2="563.862" y2="497.324" stroke="#47B52B" stroke-width="5" stroke-linecap="round"/>
    <line x1="519.677" y1="399.723" x2="531.586" y2="402.61" stroke="#47B52B" stroke-width="5" stroke-linecap="round"/>
    <line x1="517.868" y1="407.184" x2="529.778" y2="410.071" stroke="#47B52B" stroke-width="5" stroke-linecap="round"/>
    <line x1="497.978" y1="489.254" x2="562.057" y2="504.785" stroke="#47B52B" stroke-width="5" stroke-linecap="round"/>
    <line x1="479.673" y1="532.213" x2="491.582" y2="535.1" stroke="#47B52B" stroke-width="5" stroke-linecap="round"/>
    <line x1="473.591" y1="459.646" x2="522.764" y2="471.564" stroke="#47B52B" stroke-width="5" stroke-linecap="round"/>
    <line x1="481.263" y1="493.102" x2="567.7" y2="514.052" stroke="#47B52B" stroke-width="5" stroke-linecap="round"/>
    <line x1="465.698" y1="394.539" x2="499.966" y2="402.845" stroke="#47B52B" stroke-width="5" stroke-linecap="round"/>
    <line x1="471.343" y1="403.807" x2="498.158" y2="410.306" stroke="#47B52B" stroke-width="5" stroke-linecap="round"/>
    <line x1="469.532" y1="411.268" x2="496.347" y2="417.767" stroke="#47B52B" stroke-width="5" stroke-linecap="round"/>
    <line x1="512.716" y1="200.557" x2="554.437" y2="210.669" stroke="#47B52B" stroke-width="5" stroke-linecap="round"/>
    <line x1="467.946" y1="450.378" x2="517.12" y2="462.297" stroke="#47B52B" stroke-width="5" stroke-linecap="round"/>
    <line x1="462.3" y1="441.11" x2="586.002" y2="471.093" stroke="#47B52B" stroke-width="5" stroke-linecap="round"/>
    <line x1="456.655" y1="431.843" x2="550.546" y2="454.6" stroke="#47B52B" stroke-width="5" stroke-linecap="round"/>
    <line x1="514.524" y1="193.096" x2="541.34" y2="199.595" stroke="#47B52B" stroke-width="5" stroke-linecap="round"/>
    <line x1="415.335" y1="374.434" x2="509.225" y2="397.191" stroke="#47B52B" stroke-width="5" stroke-linecap="round"/>
    <line x1="460.272" y1="416.921" x2="479.635" y2="421.615" stroke="#47B52B" stroke-width="5" stroke-linecap="round"/>
    <line x1="458.462" y1="424.382" x2="515.088" y2="438.107" stroke="#47B52B" stroke-width="5" stroke-linecap="round"/>
    <line x1="510.687" y1="176.368" x2="530.049" y2="181.061" stroke="#47B52B" stroke-width="5" stroke-linecap="round"/>
    <line x1="508.88" y1="183.829" x2="543.148" y2="192.135" stroke="#47B52B" stroke-width="5" stroke-linecap="round"/>
    <line x1="496.001" y1="204.405" x2="560.08" y2="219.936" stroke="#47B52B" stroke-width="5" stroke-linecap="round"/>
    <line x1="420.981" y1="383.701" x2="447.797" y2="390.201" stroke="#47B52B" stroke-width="5" stroke-linecap="round"/>
    <line x1="423.009" y1="407.89" x2="442.371" y2="412.583" stroke="#47B52B" stroke-width="5" stroke-linecap="round"/>
    <line x1="479.288" y1="208.253" x2="588.084" y2="234.623" stroke="#47B52B" stroke-width="5" stroke-linecap="round"/>
    <line x1="424.817" y1="400.429" x2="436.727" y2="403.316" stroke="#47B52B" stroke-width="5" stroke-linecap="round"/>
    <line x1="419.173" y1="391.162" x2="438.535" y2="395.855" stroke="#47B52B" stroke-width="5" stroke-linecap="round"/>
    <line x1="428.929" y1="188.147" x2="463.197" y2="196.453" stroke="#47B52B" stroke-width="5" stroke-linecap="round"/>
    <line x1="456.929" y1="202.834" x2="468.838" y2="205.72" stroke="#47B52B" stroke-width="5" stroke-linecap="round"/>
    <line x1="409.692" y1="365.166" x2="533.394" y2="395.148" stroke="#47B52B" stroke-width="5" stroke-linecap="round"/>
    <line x1="438.187" y1="182.493" x2="465.002" y2="188.992" stroke="#47B52B" stroke-width="5" stroke-linecap="round"/>
    <line x1="447.667" y1="208.489" x2="630.991" y2="252.923" stroke="#47B52B" stroke-width="5" stroke-linecap="round"/>
    <line x1="230.827" y1="321.813" x2="399.246" y2="362.634" stroke="#47B52B" stroke-width="5" stroke-linecap="round"/>
    <line x1="229.015" y1="329.274" x2="397.433" y2="370.095" stroke="#47B52B" stroke-width="5" stroke-linecap="round"/>
    <line x1="227.208" y1="336.734" x2="388.174" y2="375.749" stroke="#47B52B" stroke-width="5" stroke-linecap="round"/>
    <line x1="225.401" y1="344.195" x2="386.367" y2="383.21" stroke="#47B52B" stroke-width="5" stroke-linecap="round"/>
    <line x1="419.663" y1="193.802" x2="439.025" y2="198.495" stroke="#47B52B" stroke-width="5" stroke-linecap="round"/>
    <line x1="417.856" y1="201.262" x2="429.766" y2="204.149" stroke="#47B52B" stroke-width="5" stroke-linecap="round"/>
    <line x1="223.591" y1="351.656" x2="377.104" y2="388.864" stroke="#47B52B" stroke-width="5" stroke-linecap="round"/>
    <line x1="229.237" y1="360.924" x2="367.845" y2="394.52" stroke="#47B52B" stroke-width="5" stroke-linecap="round"/>
    <line x1="234.88" y1="370.19" x2="366.034" y2="401.98" stroke="#47B52B" stroke-width="5" stroke-linecap="round"/>
    <line x1="345.083" y1="436.398" x2="356.993" y2="439.284" stroke="#47B52B" stroke-width="5" stroke-linecap="round"/>
    <line x1="268.749" y1="425.794" x2="355.187" y2="446.745" stroke="#47B52B" stroke-width="5" stroke-linecap="round"/>
    <line x1="266.938" y1="433.255" x2="353.376" y2="454.206" stroke="#47B52B" stroke-width="5" stroke-linecap="round"/>
    <line x1="332.206" y1="456.973" x2="351.568" y2="461.666" stroke="#47B52B" stroke-width="5" stroke-linecap="round"/>
    <line x1="330.396" y1="464.434" x2="349.758" y2="469.127" stroke="#47B52B" stroke-width="5" stroke-linecap="round"/>
    <line x1="413.802" y1="152.885" x2="462.975" y2="164.804" stroke="#47B52B" stroke-width="5" stroke-linecap="round"/>
    <line x1="411.993" y1="160.345" x2="453.714" y2="170.458" stroke="#47B52B" stroke-width="5" stroke-linecap="round"/>
    <line x1="274.173" y1="403.412" x2="338.252" y2="418.944" stroke="#47B52B" stroke-width="5" stroke-linecap="round"/>
    <line x1="272.362" y1="410.873" x2="336.442" y2="426.404" stroke="#47B52B" stroke-width="5" stroke-linecap="round"/>
    <line x1="270.556" y1="418.333" x2="334.635" y2="433.865" stroke="#47B52B" stroke-width="5" stroke-linecap="round"/>
    <line x1="265.13" y1="440.716" x2="321.756" y2="454.441" stroke="#47B52B" stroke-width="5" stroke-linecap="round"/>
    <line x1="270.774" y1="449.984" x2="319.948" y2="461.903" stroke="#47B52B" stroke-width="5" stroke-linecap="round"/>
    <line x1="268.968" y1="457.444" x2="310.689" y2="467.557" stroke="#47B52B" stroke-width="5" stroke-linecap="round"/>
    <line x1="267.161" y1="464.905" x2="308.882" y2="475.018" stroke="#47B52B" stroke-width="5" stroke-linecap="round"/>
    <line x1="341.521" y1="190.66" x2="383.241" y2="200.772" stroke="#47B52B" stroke-width="5" stroke-linecap="round"/>
    <line x1="272.802" y1="474.172" x2="299.617" y2="480.672" stroke="#47B52B" stroke-width="5" stroke-linecap="round"/>
    <line x1="341.3" y1="159.01" x2="368.115" y2="165.509" stroke="#47B52B" stroke-width="5" stroke-linecap="round"/>
    <line x1="358.235" y1="186.812" x2="370.145" y2="189.698" stroke="#47B52B" stroke-width="5" stroke-linecap="round"/>
    <line x1="270.993" y1="481.633" x2="282.903" y2="484.52" stroke="#47B52B" stroke-width="5" stroke-linecap="round"/>
    <line x1="354.179" y1="138.434" x2="373.541" y2="143.127" stroke="#47B52B" stroke-width="5" stroke-linecap="round"/>
    <line x1="337.466" y1="142.281" x2="379.187" y2="152.394" stroke="#47B52B" stroke-width="5" stroke-linecap="round"/>
    <line x1="335.657" y1="149.742" x2="369.925" y2="158.048" stroke="#47B52B" stroke-width="5" stroke-linecap="round"/>
    <line x1="324.806" y1="194.507" x2="701.903" y2="285.908" stroke="#47B52B" stroke-width="5" stroke-linecap="round"/>
    <line x1="322.997" y1="201.968" x2="715" y2="296.982" stroke="#47B52B" stroke-width="5" stroke-linecap="round"/>
    <line x1="268.528" y1="394.145" x2="347.513" y2="413.289" stroke="#47B52B" stroke-width="5" stroke-linecap="round"/>
    <line x1="306.505" y1="237.467" x2="594.169" y2="307.191" stroke="#47B52B" stroke-width="5" stroke-linecap="round"/>
    <line x1="270.337" y1="386.684" x2="356.775" y2="407.635" stroke="#47B52B" stroke-width="5" stroke-linecap="round"/>
    <line x1="267.431" y1="235.895" x2="599.811" y2="316.457" stroke="#47B52B" stroke-width="5" stroke-linecap="round"/>
    <line x1="287.759" y1="217.125" x2="679.762" y2="312.139" stroke="#47B52B" stroke-width="5" stroke-linecap="round"/>
    <line x1="278.501" y1="222.78" x2="663.051" y2="315.988" stroke="#47B52B" stroke-width="5" stroke-linecap="round"/>
    <line x1="276.69" y1="230.241" x2="296.053" y2="234.934" stroke="#47B52B" stroke-width="5" stroke-linecap="round"/>
    <line x1="269.458" y1="260.084" x2="594.386" y2="338.84" stroke="#47B52B" stroke-width="5" stroke-linecap="round"/>
    <line x1="256.581" y1="280.66" x2="559.15" y2="353.997" stroke="#47B52B" stroke-width="5" stroke-linecap="round"/>
    <line x1="252.964" y1="295.581" x2="331.949" y2="314.725" stroke="#47B52B" stroke-width="5" stroke-linecap="round"/>
    <line x1="251.157" y1="303.042" x2="538.821" y2="372.766" stroke="#47B52B" stroke-width="5" stroke-linecap="round"/>
    <line x1="241.894" y1="308.697" x2="537.01" y2="380.227" stroke="#47B52B" stroke-width="5" stroke-linecap="round"/>
    <line x1="154.981" y1="113.85" x2="278.683" y2="143.832" stroke="#47B52B" stroke-width="5" stroke-linecap="round"/>
    <line x1="244.853" y1="198.826" x2="264.215" y2="203.519" stroke="#47B52B" stroke-width="5" stroke-linecap="round"/>
    <line x1="232.634" y1="314.352" x2="535.203" y2="387.688" stroke="#47B52B" stroke-width="5" stroke-linecap="round"/>
    <line x1="181.177" y1="135.997" x2="267.614" y2="156.947" stroke="#47B52B" stroke-width="5" stroke-linecap="round"/>
    <line x1="185.013" y1="152.725" x2="263.998" y2="171.869" stroke="#47B52B" stroke-width="5" stroke-linecap="round"/>
    <line x1="248.472" y1="183.905" x2="275.287" y2="190.404" stroke="#47B52B" stroke-width="5" stroke-linecap="round"/>
    <line x1="246.663" y1="191.365" x2="273.478" y2="197.865" stroke="#47B52B" stroke-width="5" stroke-linecap="round"/>
    <line x1="181.396" y1="167.647" x2="238.022" y2="181.372" stroke="#47B52B" stroke-width="5" stroke-linecap="round"/>
    <line x1="72.9463" y1="354.638" x2="181.742" y2="381.008" stroke="#47B52B" stroke-width="5" stroke-linecap="round"/>
    <line x1="71.1357" y1="362.099" x2="179.932" y2="388.469" stroke="#47B52B" stroke-width="5" stroke-linecap="round"/>
    <line x1="179.589" y1="175.107" x2="221.31" y2="185.22" stroke="#47B52B" stroke-width="5" stroke-linecap="round"/>
    <line x1="76.7842" y1="371.366" x2="170.675" y2="394.123" stroke="#47B52B" stroke-width="5" stroke-linecap="round"/>
    <line x1="74.9736" y1="378.828" x2="168.864" y2="401.585" stroke="#47B52B" stroke-width="5" stroke-linecap="round"/>
    <line x1="88.0693" y1="389.901" x2="167.054" y2="409.046" stroke="#47B52B" stroke-width="5" stroke-linecap="round"/>
    <line x1="86.2627" y1="397.362" x2="157.795" y2="414.7" stroke="#47B52B" stroke-width="5" stroke-linecap="round"/>
    <line x1="84.4541" y1="404.823" x2="155.986" y2="422.161" stroke="#47B52B" stroke-width="5" stroke-linecap="round"/>
    <line x1="196.521" y1="202.909" x2="200.977" y2="203.989" stroke="#47B52B" stroke-width="5" stroke-linecap="round"/>
    <line x1="216.192" y1="89.1895" x2="272.819" y2="102.915" stroke="#47B52B" stroke-width="5" stroke-linecap="round"/>
    <line x1="82.6475" y1="412.284" x2="139.274" y2="426.009" stroke="#47B52B" stroke-width="5" stroke-linecap="round"/>
    <line x1="80.8389" y1="419.745" x2="137.465" y2="433.47" stroke="#47B52B" stroke-width="5" stroke-linecap="round"/>
    <line x1="185.229" y1="184.375" x2="212.045" y2="190.874" stroke="#47B52B" stroke-width="5" stroke-linecap="round"/>
    <line x1="183.421" y1="191.836" x2="210.236" y2="198.335" stroke="#47B52B" stroke-width="5" stroke-linecap="round"/>
    <line x1="85.8252" y1="334.062" x2="149.904" y2="349.594" stroke="#47B52B" stroke-width="5" stroke-linecap="round"/>
    <line x1="79.0283" y1="427.206" x2="128.202" y2="439.124" stroke="#47B52B" stroke-width="5" stroke-linecap="round"/>
    <line x1="183.204" y1="160.186" x2="254.736" y2="177.524" stroke="#47B52B" stroke-width="5" stroke-linecap="round"/>
    <line x1="8.61034" y1="196.859" x2="177.029" y2="237.681" stroke="#47B52B" stroke-width="5" stroke-linecap="round"/>
    <line x1="69.7685" y1="432.859" x2="118.942" y2="444.778" stroke="#47B52B" stroke-width="5" stroke-linecap="round"/>
    <line x1="179.366" y1="143.458" x2="265.804" y2="164.408" stroke="#47B52B" stroke-width="5" stroke-linecap="round"/>
    <line x1="-0.870124" y1="170.864" x2="175.001" y2="213.492" stroke="#47B52B" stroke-width="5" stroke-linecap="round"/>
    <line x1="80.1807" y1="324.795" x2="151.713" y2="342.133" stroke="#47B52B" stroke-width="5" stroke-linecap="round"/>
    <line x1="67.958" y1="440.321" x2="109.679" y2="450.433" stroke="#47B52B" stroke-width="5" stroke-linecap="round"/>
    <line x1="88.7275" y1="484.85" x2="100.637" y2="487.737" stroke="#47B52B" stroke-width="5" stroke-linecap="round"/>
    <line x1="14.2549" y1="206.127" x2="152.862" y2="239.722" stroke="#47B52B" stroke-width="5" stroke-linecap="round"/>
    <line x1="94.8643" y1="296.758" x2="129.132" y2="305.064" stroke="#47B52B" stroke-width="5" stroke-linecap="round"/>
    <line x1="57.1103" y1="485.086" x2="83.9255" y2="491.585" stroke="#47B52B" stroke-width="5" stroke-linecap="round"/>
    <line x1="62.7529" y1="494.353" x2="82.1153" y2="499.046" stroke="#47B52B" stroke-width="5" stroke-linecap="round"/>
    <line x1="98.7021" y1="313.486" x2="118.064" y2="318.179" stroke="#47B52B" stroke-width="5" stroke-linecap="round"/>
    <line x1="153.173" y1="121.31" x2="269.422" y2="149.487" stroke="#47B52B" stroke-width="5" stroke-linecap="round"/>
    <line x1="66.1514" y1="447.782" x2="100.419" y2="456.088" stroke="#47B52B" stroke-width="5" stroke-linecap="round"/>
    <line x1="64.3428" y1="455.243" x2="91.1579" y2="461.742" stroke="#47B52B" stroke-width="5" stroke-linecap="round"/>
    <line x1="62.5342" y1="462.703" x2="89.3493" y2="469.203" stroke="#47B52B" stroke-width="5" stroke-linecap="round"/>
    <line x1="60.7236" y1="470.164" x2="87.5388" y2="476.664" stroke="#47B52B" stroke-width="5" stroke-linecap="round"/>
    <line x1="58.9189" y1="477.625" x2="78.2813" y2="482.318" stroke="#47B52B" stroke-width="5" stroke-linecap="round"/>
    <line x1="149.118" y1="72.9317" x2="175.933" y2="79.4312" stroke="#47B52B" stroke-width="5" stroke-linecap="round"/>
    <line x1="116.347" y1="175.578" x2="158.067" y2="185.69" stroke="#47B52B" stroke-width="5" stroke-linecap="round"/>
    <line x1="121.993" y1="184.845" x2="163.714" y2="194.958" stroke="#47B52B" stroke-width="5" stroke-linecap="round"/>
    <line x1="91.0303" y1="280.029" x2="102.94" y2="282.916" stroke="#47B52B" stroke-width="5" stroke-linecap="round"/>
    <line x1="20.1201" y1="247.045" x2="99.105" y2="266.189" stroke="#47B52B" stroke-width="5" stroke-linecap="round"/>
    <line x1="74.5361" y1="315.527" x2="138.615" y2="331.059" stroke="#47B52B" stroke-width="5" stroke-linecap="round"/>
    <line x1="76.5635" y1="339.716" x2="163.001" y2="360.667" stroke="#47B52B" stroke-width="5" stroke-linecap="round"/>
    <line x1="74.7549" y1="347.177" x2="176.098" y2="371.741" stroke="#47B52B" stroke-width="5" stroke-linecap="round"/>
    <line x1="61.4365" y1="304.454" x2="88.2517" y2="310.953" stroke="#47B52B" stroke-width="5" stroke-linecap="round"/>
    <line x1="117.495" y1="73.1671" x2="293.367" y2="115.795" stroke="#47B52B" stroke-width="5" stroke-linecap="round"/>
    <line x1="40.8896" y1="291.574" x2="90.0632" y2="303.492" stroke="#47B52B" stroke-width="5" stroke-linecap="round"/>
    <line x1="108.233" y1="78.8218" x2="291.558" y2="123.256" stroke="#47B52B" stroke-width="5" stroke-linecap="round"/>
    <line x1="23.9521" y1="263.772" x2="65.6729" y2="273.884" stroke="#47B52B" stroke-width="5" stroke-linecap="round"/>
    <line x1="35.2432" y1="282.306" x2="84.4168" y2="294.225" stroke="#47B52B" stroke-width="5" stroke-linecap="round"/>
    <line x1="84.0674" y1="80.8633" x2="282.297" y2="128.91" stroke="#47B52B" stroke-width="5" stroke-linecap="round"/>
    <line x1="22.1435" y1="271.233" x2="108.581" y2="292.184" stroke="#47B52B" stroke-width="5" stroke-linecap="round"/>
    <line x1="18.3115" y1="254.505" x2="104.749" y2="275.456" stroke="#47B52B" stroke-width="5" stroke-linecap="round"/>
    <line x1="59.9014" y1="82.9053" x2="273.037" y2="134.565" stroke="#47B52B" stroke-width="5" stroke-linecap="round"/>
    <line x1="7.01855" y1="235.97" x2="115.815" y2="262.34" stroke="#47B52B" stroke-width="5" stroke-linecap="round"/>
    <line x1="43.1885" y1="86.7525" x2="144.532" y2="111.316" stroke="#47B52B" stroke-width="5" stroke-linecap="round"/>
    <line x1="41.3818" y1="94.2134" x2="142.725" y2="118.777" stroke="#47B52B" stroke-width="5" stroke-linecap="round"/>
    <line x1="4.99316" y1="211.781" x2="128.695" y2="241.764" stroke="#47B52B" stroke-width="5" stroke-linecap="round"/>
    <line x1="10.6377" y1="221.048" x2="126.887" y2="249.224" stroke="#47B52B" stroke-width="5" stroke-linecap="round"/>
    <line x1="8.83105" y1="228.509" x2="117.627" y2="254.879" stroke="#47B52B" stroke-width="5" stroke-linecap="round"/>
    <line x1="32.1182" y1="99.8682" x2="148.367" y2="128.045" stroke="#47B52B" stroke-width="5" stroke-linecap="round"/>
    <line x1="30.3115" y1="107.33" x2="154.013" y2="137.312" stroke="#47B52B" stroke-width="5" stroke-linecap="round"/>
    <line x1="2.96581" y1="187.591" x2="171.384" y2="228.413" stroke="#47B52B" stroke-width="5" stroke-linecap="round"/>
    <line x1="-2.67872" y1="178.325" x2="173.193" y2="220.952" stroke="#47B52B" stroke-width="5" stroke-linecap="round"/>
    <line x1="-6.51661" y1="161.597" x2="161.902" y2="202.419" stroke="#47B52B" stroke-width="5" stroke-linecap="round"/>
    <line x1="-71.7822" y1="137.878" x2="96.6364" y2="178.7" stroke="#47B52B" stroke-width="5" stroke-linecap="round"/>
    <line x1="-53.4795" y1="94.92" x2="159.656" y2="146.58" stroke="#47B52B" stroke-width="5" stroke-linecap="round"/>
    <line x1="-62.7393" y1="100.574" x2="165.302" y2="155.846" stroke="#47B52B" stroke-width="5" stroke-linecap="round"/>
    <line x1="-64.5479" y1="108.035" x2="170.946" y2="165.114" stroke="#47B52B" stroke-width="5" stroke-linecap="round"/>
    <line x1="-66.3545" y1="115.496" x2="169.139" y2="172.575" stroke="#47B52B" stroke-width="5" stroke-linecap="round"/>
    <line x1="-68.167" y1="122.957" x2="159.874" y2="178.23" stroke="#47B52B" stroke-width="5" stroke-linecap="round"/>
    <line x1="-69.9736" y1="130.418" x2="98.445" y2="171.239" stroke="#47B52B" stroke-width="5" stroke-linecap="round"/>
  </g>
  <path d="M433.556 260.305C433.556 269.629 416.672 303.029 416.672 303.029C416.672 303.029 399.789 269.629 399.789 260.305C399.789 250.98 407.348 243.421 416.672 243.421C425.997 243.421 433.556 250.98 433.556 260.305Z" fill="white"/>
  <circle cx="416.673" cy="261.404" r="5.62774" fill="black"/>
  <path d="M328.663 246.902C328.663 256.226 311.78 289.626 311.78 289.626C311.78 289.626 294.896 256.226 294.896 246.902C294.896 237.577 302.455 230.019 311.78 230.019C321.104 230.019 328.663 237.577 328.663 246.902Z" fill="white"/>
  <circle cx="311.78" cy="248.001" r="5.62774" fill="black"/>
  <path d="M155.477 123.699C155.477 133.023 138.594 166.424 138.594 166.424C138.594 166.424 121.711 133.023 121.711 123.699C121.711 114.375 129.27 106.816 138.594 106.816C147.919 106.816 155.477 114.375 155.477 123.699Z" fill="white"/>
  <circle cx="138.595" cy="124.798" r="5.62774" fill="black"/>
  <path d="M252.798 134.717C252.798 144.042 235.914 177.442 235.914 177.442C235.914 177.442 219.031 144.042 219.031 134.717C219.031 125.393 226.59 117.834 235.914 117.834C245.239 117.834 252.798 125.393 252.798 134.717Z" fill="white"/>
  <circle cx="235.915" cy="135.816" r="5.62774" fill="black"/>
  <path d="M261.19 61.995C261.19 71.3194 244.307 104.72 244.307 104.72C244.307 104.72 227.424 71.3194 227.424 61.995C227.424 52.6707 234.983 45.1118 244.307 45.1118C253.631 45.1118 261.19 52.6707 261.19 61.995Z" fill="white"/>
  <circle cx="244.307" cy="63.0941" r="5.62774" fill="black"/>
  <path d="M479.848 164.521C479.848 173.845 462.965 207.246 462.965 207.246C462.965 207.246 446.082 173.845 446.082 164.521C446.082 155.197 453.641 147.638 462.965 147.638C472.29 147.638 479.848 155.197 479.848 164.521Z" fill="white"/>
  <circle cx="462.966" cy="165.62" r="5.62774" fill="black"/>
  <path d="M538.774 224.129C538.774 233.453 521.891 266.853 521.891 266.853C521.891 266.853 505.008 233.453 505.008 224.129C505.008 214.804 512.567 207.246 521.891 207.246C531.215 207.246 538.774 214.804 538.774 224.129Z" fill="white"/>
  <circle cx="521.891" cy="225.228" r="5.62774" fill="black"/>
  <path d="M502.36 331.704C502.36 341.028 485.477 374.428 485.477 374.428C485.477 374.428 468.594 341.028 468.594 331.704C468.594 322.379 476.153 314.82 485.477 314.82C494.801 314.82 502.36 322.379 502.36 331.704Z" fill="white"/>
  <circle cx="485.477" cy="332.803" r="5.62774" fill="black"/>
  <path d="M382.528 179.995C382.528 189.319 365.645 222.72 365.645 222.72C365.645 222.72 348.762 189.319 348.762 179.995C348.762 170.671 356.321 163.112 365.645 163.112C374.969 163.112 382.528 170.671 382.528 179.995Z" fill="white"/>
  <circle cx="365.645" cy="181.094" r="5.62774" fill="black"/>
  <path d="M286.565 330.777C286.565 340.102 269.682 373.502 269.682 373.502C269.682 373.502 252.799 340.102 252.799 330.777C252.799 321.453 260.358 313.894 269.682 313.894C279.006 313.894 286.565 321.453 286.565 330.777Z" fill="white"/>
  <circle cx="269.682" cy="331.876" r="5.62774" fill="black"/>
  <path d="M371.233 366.552C371.233 375.876 354.35 409.276 354.35 409.276C354.35 409.276 337.467 375.876 337.467 366.552C337.467 357.227 345.026 349.668 354.35 349.668C363.674 349.668 371.233 357.227 371.233 366.552Z" fill="white"/>
  <circle cx="354.35" cy="367.651" r="5.62774" fill="black"/>
  <path d="M95.4188 203.605C95.4188 212.929 78.5356 246.33 78.5356 246.33C78.5356 246.33 61.6523 212.929 61.6523 203.605C61.6523 194.281 69.2112 186.722 78.5356 186.722C87.8599 186.722 95.4188 194.281 95.4188 203.605Z" fill="white"/>
  <circle cx="78.5359" cy="204.704" r="5.62774" fill="black"/>
  <path d="M175.761 367.153C175.761 376.477 158.877 409.877 158.877 409.877C158.877 409.877 141.994 376.477 141.994 367.153C141.994 357.828 149.553 350.27 158.877 350.27C168.202 350.27 175.761 357.828 175.761 367.153Z" fill="white"/>
  <circle cx="158.88" cy="368.251" r="5.62774" fill="black"/>
  <path d="M120.872 294.78C120.872 304.104 103.989 337.504 103.989 337.504C103.989 337.504 87.1055 304.104 87.1055 294.78C87.1055 285.455 94.6643 277.896 103.989 277.896C113.313 277.896 120.872 285.455 120.872 294.78Z" fill="white"/>
  <circle cx="103.989" cy="295.878" r="5.62774" fill="black"/>
  <defs>
    <filter id="filter0_f_2959_29277" x="73" y="86" width="471.773" height="471.773" filterUnits="userSpaceOnUse" color-interpolation-filters="sRGB">
      <feFlood flood-opacity="0" result="BackgroundImageFix"/>
      <feBlend mode="normal" in="SourceGraphic" in2="BackgroundImageFix" result="shape"/>
      <feGaussianBlur stdDeviation="5" result="effect1_foregroundBlur_2959_29277"/>
    </filter>
    <linearGradient id="paint0_linear_2959_29277" x1="377.749" y1="101.544" x2="229.185" y2="538.72" gradientUnits="userSpaceOnUse">
      <stop stop-color="#04418B"/>
      <stop offset="1" stop-color="#021C3B"/>
    </linearGradient>
  </defs>
</svg>
